<svg xmlns="http://www.w3.org/2000/svg" xmlns:xlink="http://www.w3.org/1999/xlink" viewBox="0 0 1619 360" width="1619" height="360"><rect width="1619" height="360" fill="#0d1033"/><circle cx="158" cy="192" r="125" fill="#f1f1eb"/>
<circle cx="158" cy="192" r="118" fill="#0b0c18"/>
<g fill="none" stroke="#f1f1eb" stroke-opacity=".2" stroke-width="1.20">
<circle cx="158" cy="192" r="109.7"/>
<circle cx="158" cy="192" r="98.5"/>
<circle cx="158" cy="192" r="87.3"/>
<circle cx="158" cy="192" r="76.2"/>
<circle cx="158" cy="192" r="65.0"/>
<circle cx="158" cy="192" r="53.8"/>
</g>
<path d="M84.8 118.8 A103.8 103.8 0 0 1 179.2 90.5" fill="none" stroke="#f1f1eb" stroke-opacity=".35" stroke-width="3.0" stroke-linecap="round"/>
<circle cx="158" cy="192" r="48" fill="#f5bf1d"/>
<circle cx="158" cy="192" r="7" fill="#0d1033"/>
<defs><path id="p67" d="M432.19 172.82Q432.19 180.38 429.13 186.97Q426.07 193.56 420.51 198.11Q414.94 202.66 407.46 204.1Q402.36 204.95 399 205.97Q395.64 206.99 391.74 207.71Q387.82 208.44 380.94 208.44Q376.69 208.44 372.69 207.75Q368.7 207.07 365.38 205.93Q362.07 204.78 359.69 203.5L359.35 188.54Q361.81 189.82 364.19 190.54Q366.57 191.26 369.12 191.52Q371.68 191.78 374.65 191.78Q384.6 191.78 389.82 186.84Q395.05 181.91 395.05 172.48Q395.05 165.25 392.12 159.6Q389.19 153.95 384 150.72Q378.81 147.49 371.85 147.49L368.79 147.49L368.79 223.99Q368.79 226.79 369.63 228.37Q370.49 229.94 372.87 231.3L375.42 232.75Q378.13 234.19 379.41 236.36Q380.69 238.53 380.69 241.67Q380.69 250 371.59 250L329.35 250Q324.93 250 322.59 247.83Q320.25 245.66 320.25 241.67Q320.25 235.63 325.52 232.75L328.07 231.3Q330.45 229.94 331.3 228.37Q332.15 226.79 332.15 223.99L332.15 157.01Q332.15 154.2 331.3 152.63Q330.45 151.06 328.07 149.7L325.52 148.25Q320.25 145.37 320.25 139.33Q320.25 135.33 322.59 133.17Q324.93 131 329.35 131L373.97 131Q393.01 131 405.97 136.44Q418.94 141.88 425.56 151.31Q432.19 160.75 432.19 172.82ZM380.43 200.1L415.37 195.77L430.24 225.94Q431.69 228.75 433.13 230.19Q434.57 231.64 437.38 233.09Q439.68 234.44 440.78 236.44Q441.88 238.44 441.88 241.67Q441.88 245.58 439.68 247.79Q437.47 250 432.79 250L396.58 250Q387.82 250 387.82 241.67Q387.82 239.46 388.59 237.89Q389.36 236.31 390.8 235.29L392.42 234.19Q393.35 233.51 393.48 232.45Q393.61 231.38 392.67 229.26ZM482.92 179.19L482.92 227.39Q482.92 231.47 483.38 232.96Q483.85 234.44 484.79 235.29L485.63 236.06Q487.34 237.42 488.31 239.03Q489.29 240.65 489.29 243.12Q489.29 246.34 487.38 248.17Q485.47 250 482.24 250L451.38 250Q448.06 250 446.19 248.17Q444.32 246.34 444.32 243.12Q444.32 240.65 445.26 239.03Q446.19 237.42 447.98 236.06L448.83 235.29Q449.76 234.44 450.23 232.96Q450.7 231.47 450.7 227.39L450.7 202.66Q450.7 199.34 450.06 197.98Q449.43 196.62 447.98 195.69L447.22 195.18Q445.18 193.81 444.32 192.45Q443.48 191.09 443.48 188.97Q443.48 186.5 444.92 184.72Q446.37 182.94 450.02 181.41L465.24 175.2Q469.57 173.41 472.04 172.78Q474.5 172.14 476.62 172.14Q479.77 172.14 481.34 174.09Q482.92 176.05 482.92 179.19ZM466.6 166.95Q458.1 166.95 453.21 162.37Q448.32 157.77 448.32 149.95Q448.32 142.13 453.21 137.54Q458.1 132.95 466.6 132.95Q475.1 132.95 479.98 137.54Q484.87 142.13 484.87 149.95Q484.87 157.77 479.98 162.37Q475.1 166.95 466.6 166.95ZM533.38 227.39Q533.38 231.13 534.31 233.09Q535.25 235.04 537.46 235.29L543.58 235.97Q546.98 236.31 548.47 238.14Q549.96 239.97 549.96 242.94Q549.96 250 542.9 250L497.68 250Q494.45 250 492.54 248.17Q490.62 246.34 490.62 243.12Q490.62 240.22 491.9 238.53Q493.18 236.82 495.81 235.72L497.17 235.12Q498.95 234.44 500.06 232.62Q501.16 230.79 501.16 227.05L501.16 194.83Q501.16 192.88 500.27 191.78Q499.38 190.67 496.66 189.39L495.04 188.63Q491.56 186.93 490.03 184.93Q488.5 182.94 488.5 180.21Q488.5 177.32 490.37 175.58Q492.24 173.84 495.56 173.84L509.75 173.84L501.42 177.07L501.42 174.18Q501.42 172.14 500.06 170.48Q498.7 168.82 496.96 166.66Q495.21 164.49 493.85 161.18Q492.5 157.86 492.5 152.5Q492.5 142.39 500.78 135.55Q509.07 128.7 524.62 128.7Q534.57 128.7 541.33 131.76Q548.09 134.82 551.53 139.84Q554.97 144.85 554.97 150.72Q554.97 157.18 551.4 160.62Q547.83 164.06 542.3 164.06Q535.85 164.06 532.15 160.2Q528.45 156.33 528.45 149.78L528.45 146.47Q528.45 143.5 526.92 141.92Q525.39 140.35 522.67 140.35Q519.78 140.35 518.38 142.09Q516.98 143.83 516.98 146.81Q516.98 149.53 518.38 152.16Q519.78 154.8 521.82 157.39Q523.86 159.99 525.9 162.66Q527.94 165.34 529.34 168.19Q530.75 171.03 530.75 174.09L530.75 179.7L525.81 173.84L544.35 173.84Q547.66 173.84 549.49 175.37Q551.32 176.9 551.32 179.79Q551.32 184.12 547.75 187.01Q544.17 189.91 535.93 189.91L533.38 189.91ZM594.98 227.39Q594.98 231.13 595.91 233.09Q596.85 235.04 599.06 235.29L605.18 235.97Q608.58 236.31 610.07 238.14Q611.56 239.97 611.56 242.94Q611.56 250 604.5 250L559.28 250Q556.05 250 554.14 248.17Q552.23 246.34 552.23 243.12Q552.23 240.22 553.5 238.53Q554.77 236.82 557.41 235.72L558.77 235.12Q560.56 234.44 561.66 232.62Q562.76 230.79 562.76 227.05L562.76 194.83Q562.76 192.88 561.87 191.78Q560.98 190.67 558.26 189.39L556.64 188.63Q553.16 186.93 551.63 184.93Q550.1 182.94 550.1 180.21Q550.1 177.32 551.97 175.58Q553.84 173.84 557.15 173.84L571.35 173.84L563.02 177.07L563.02 174.18Q563.02 172.14 561.66 170.48Q560.3 168.82 558.56 166.66Q556.82 164.49 555.46 161.18Q554.1 157.86 554.1 152.5Q554.1 142.39 562.38 135.55Q570.67 128.7 586.23 128.7Q596.17 128.7 602.93 131.76Q609.69 134.82 613.13 139.84Q616.57 144.85 616.57 150.72Q616.57 157.18 613 160.62Q609.43 164.06 603.9 164.06Q597.45 164.06 593.75 160.2Q590.05 156.33 590.05 149.78L590.05 146.47Q590.05 143.5 588.52 141.92Q586.99 140.35 584.27 140.35Q581.38 140.35 579.98 142.09Q578.58 143.83 578.58 146.81Q578.58 149.53 579.98 152.16Q581.38 154.8 583.42 157.39Q585.46 159.99 587.5 162.66Q589.54 165.34 590.94 168.19Q592.35 171.03 592.35 174.09L592.35 179.7L587.41 173.84L605.95 173.84Q609.26 173.84 611.09 175.37Q612.91 176.9 612.91 179.79Q612.91 184.12 609.35 187.01Q605.77 189.91 597.53 189.91L594.98 189.91ZM646.3 239.29Q650.12 239.29 651.78 237.84Q653.44 236.4 653.44 234.53Q653.44 233.34 652.88 232.32Q652.33 231.3 650.63 230.32Q648.93 229.34 645.53 228.5Q632.19 224.93 624.88 220.97Q617.57 217.02 614.72 211.71Q611.87 206.39 611.87 198.83Q611.87 186.93 619.95 179.53Q628.02 172.14 644.68 172.14Q649.53 172.14 652.8 173.03Q656.07 173.93 658.41 174.82Q660.75 175.71 662.62 175.71Q664.23 175.71 665.46 174.82Q666.7 173.93 668.06 173.03Q669.42 172.14 671.37 172.14Q673.58 172.14 675.32 173.63Q677.07 175.12 678.17 179.37L679.87 186.16Q681.32 191.69 680.59 195.51Q679.87 199.34 676.64 200.62Q673.24 201.97 670.05 200.74Q666.87 199.51 664.32 196.11Q661.17 191.86 658.28 189.44Q655.39 187.01 652.63 186Q649.87 184.97 647.06 184.97Q643.24 184.97 641.41 186.63Q639.58 188.29 639.58 190.41Q639.58 192.03 640.51 193.35Q641.45 194.66 644.09 195.81Q646.72 196.96 651.65 198.06Q660.66 200.02 667.25 203.46Q673.84 206.91 677.45 212.34Q681.06 217.78 681.06 225.78Q681.06 233.94 676.85 239.84Q672.64 245.75 665.21 248.98Q657.77 252.21 648.17 252.21Q642.38 252.21 639.28 251.36Q636.18 250.51 634.57 249.62Q632.95 248.72 631.59 248.72Q630.14 248.72 628.91 249.62Q627.68 250.51 626.32 251.36Q624.96 252.21 623.18 252.21Q620.88 252.21 619.56 250.72Q618.25 249.24 617.57 245.5L616.04 236.57Q615.1 230.88 615.82 227.73Q616.55 224.59 620.12 223.74Q623.26 222.97 626.24 224.41Q629.21 225.86 632.1 229.85Q636.26 235.47 639.2 237.38Q642.13 239.29 646.3 239.29Z"/></defs>
<g fill="#f1f1eb" stroke="#f1f1eb" stroke-width="26" stroke-linejoin="round">
<use href="#p67" transform="translate(11.00 11.00)"/>
<use href="#p67" transform="translate(10.00 10.00)"/>
<use href="#p67" transform="translate(9.00 9.00)"/>
<use href="#p67" transform="translate(8.00 8.00)"/>
<use href="#p67" transform="translate(7.00 7.00)"/>
<use href="#p67" transform="translate(6.00 6.00)"/>
<use href="#p67" transform="translate(5.00 5.00)"/>
<use href="#p67" transform="translate(4.00 4.00)"/>
<use href="#p67" transform="translate(3.00 3.00)"/>
<use href="#p67" transform="translate(2.00 2.00)"/>
<use href="#p67" transform="translate(1.00 1.00)"/>
<use href="#p67" transform="translate(0.00 0.00)"/>
</g>
<g fill="#0b0c18" stroke="#0b0c18" stroke-width="8" stroke-linejoin="round">
<use href="#p67" transform="translate(11.00 11.00)"/>
<use href="#p67" transform="translate(10.00 10.00)"/>
<use href="#p67" transform="translate(9.00 9.00)"/>
<use href="#p67" transform="translate(8.00 8.00)"/>
<use href="#p67" transform="translate(7.00 7.00)"/>
<use href="#p67" transform="translate(6.00 6.00)"/>
<use href="#p67" transform="translate(5.00 5.00)"/>
<use href="#p67" transform="translate(4.00 4.00)"/>
<use href="#p67" transform="translate(3.00 3.00)"/>
<use href="#p67" transform="translate(2.00 2.00)"/>
<use href="#p67" transform="translate(1.00 1.00)"/>
<use href="#p67" transform="translate(0.00 0.00)"/>
</g>
<g fill="#2536d0">
<use href="#p67" transform="translate(11.00 11.00)"/>
<use href="#p67" transform="translate(10.00 10.00)"/>
<use href="#p67" transform="translate(9.00 9.00)"/>
<use href="#p67" transform="translate(8.00 8.00)"/>
<use href="#p67" transform="translate(7.00 7.00)"/>
<use href="#p67" transform="translate(6.00 6.00)"/>
<use href="#p67" transform="translate(5.00 5.00)"/>
<use href="#p67" transform="translate(4.00 4.00)"/>
<use href="#p67" transform="translate(3.00 3.00)"/>
<use href="#p67" transform="translate(2.00 2.00)"/>
<use href="#p67" transform="translate(1.00 1.00)"/>
</g>
<path d="M432.19 172.82Q432.19 180.38 429.13 186.97Q426.07 193.56 420.51 198.11Q414.94 202.66 407.46 204.1Q402.36 204.95 399 205.97Q395.64 206.99 391.74 207.71Q387.82 208.44 380.94 208.44Q376.69 208.44 372.69 207.75Q368.7 207.07 365.38 205.93Q362.07 204.78 359.69 203.5L359.35 188.54Q361.81 189.82 364.19 190.54Q366.57 191.26 369.12 191.52Q371.68 191.78 374.65 191.78Q384.6 191.78 389.82 186.84Q395.05 181.91 395.05 172.48Q395.05 165.25 392.12 159.6Q389.19 153.95 384 150.72Q378.81 147.49 371.85 147.49L368.79 147.49L368.79 223.99Q368.79 226.79 369.63 228.37Q370.49 229.94 372.87 231.3L375.42 232.75Q378.13 234.19 379.41 236.36Q380.69 238.53 380.69 241.67Q380.69 250 371.59 250L329.35 250Q324.93 250 322.59 247.83Q320.25 245.66 320.25 241.67Q320.25 235.63 325.52 232.75L328.07 231.3Q330.45 229.94 331.3 228.37Q332.15 226.79 332.15 223.99L332.15 157.01Q332.15 154.2 331.3 152.63Q330.45 151.06 328.07 149.7L325.52 148.25Q320.25 145.37 320.25 139.33Q320.25 135.33 322.59 133.17Q324.93 131 329.35 131L373.97 131Q393.01 131 405.97 136.44Q418.94 141.88 425.56 151.31Q432.19 160.75 432.19 172.82ZM380.43 200.1L415.37 195.77L430.24 225.94Q431.69 228.75 433.13 230.19Q434.57 231.64 437.38 233.09Q439.68 234.44 440.78 236.44Q441.88 238.44 441.88 241.67Q441.88 245.58 439.68 247.79Q437.47 250 432.79 250L396.58 250Q387.82 250 387.82 241.67Q387.82 239.46 388.59 237.89Q389.36 236.31 390.8 235.29L392.42 234.19Q393.35 233.51 393.48 232.45Q393.61 231.38 392.67 229.26ZM482.92 179.19L482.92 227.39Q482.92 231.47 483.38 232.96Q483.85 234.44 484.79 235.29L485.63 236.06Q487.34 237.42 488.31 239.03Q489.29 240.65 489.29 243.12Q489.29 246.34 487.38 248.17Q485.47 250 482.24 250L451.38 250Q448.06 250 446.19 248.17Q444.32 246.34 444.32 243.12Q444.32 240.65 445.26 239.03Q446.19 237.42 447.98 236.06L448.83 235.29Q449.76 234.44 450.23 232.96Q450.7 231.47 450.7 227.39L450.7 202.66Q450.7 199.34 450.06 197.98Q449.43 196.62 447.98 195.69L447.22 195.18Q445.18 193.81 444.32 192.45Q443.48 191.09 443.48 188.97Q443.48 186.5 444.92 184.72Q446.37 182.94 450.02 181.41L465.24 175.2Q469.57 173.41 472.04 172.78Q474.5 172.14 476.62 172.14Q479.77 172.14 481.34 174.09Q482.92 176.05 482.92 179.19ZM466.6 166.95Q458.1 166.95 453.21 162.37Q448.32 157.77 448.32 149.95Q448.32 142.13 453.21 137.54Q458.1 132.95 466.6 132.95Q475.1 132.95 479.98 137.54Q484.87 142.13 484.87 149.95Q484.87 157.77 479.98 162.37Q475.1 166.95 466.6 166.95ZM533.38 227.39Q533.38 231.13 534.31 233.09Q535.25 235.04 537.46 235.29L543.58 235.97Q546.98 236.31 548.47 238.14Q549.96 239.97 549.96 242.94Q549.96 250 542.9 250L497.68 250Q494.45 250 492.54 248.17Q490.62 246.34 490.62 243.12Q490.62 240.22 491.9 238.53Q493.18 236.82 495.81 235.72L497.17 235.12Q498.95 234.44 500.06 232.62Q501.16 230.79 501.16 227.05L501.16 194.83Q501.16 192.88 500.27 191.78Q499.38 190.67 496.66 189.39L495.04 188.63Q491.56 186.93 490.03 184.93Q488.5 182.94 488.5 180.21Q488.5 177.32 490.37 175.58Q492.24 173.84 495.56 173.84L509.75 173.84L501.42 177.07L501.42 174.18Q501.42 172.14 500.06 170.48Q498.7 168.82 496.96 166.66Q495.21 164.49 493.85 161.18Q492.5 157.86 492.5 152.5Q492.5 142.39 500.78 135.55Q509.07 128.7 524.62 128.7Q534.57 128.7 541.33 131.76Q548.09 134.82 551.53 139.84Q554.97 144.85 554.97 150.72Q554.97 157.18 551.4 160.62Q547.83 164.06 542.3 164.06Q535.85 164.06 532.15 160.2Q528.45 156.33 528.45 149.78L528.45 146.47Q528.45 143.5 526.92 141.92Q525.39 140.35 522.67 140.35Q519.78 140.35 518.38 142.09Q516.98 143.83 516.98 146.81Q516.98 149.53 518.38 152.16Q519.78 154.8 521.82 157.39Q523.86 159.99 525.9 162.66Q527.94 165.34 529.34 168.19Q530.75 171.03 530.75 174.09L530.75 179.7L525.81 173.84L544.35 173.84Q547.66 173.84 549.49 175.37Q551.32 176.9 551.32 179.79Q551.32 184.12 547.75 187.01Q544.17 189.91 535.93 189.91L533.38 189.91ZM594.98 227.39Q594.98 231.13 595.91 233.09Q596.85 235.04 599.06 235.29L605.18 235.97Q608.58 236.31 610.07 238.14Q611.56 239.97 611.56 242.94Q611.56 250 604.5 250L559.28 250Q556.05 250 554.14 248.17Q552.23 246.34 552.23 243.12Q552.23 240.22 553.5 238.53Q554.77 236.82 557.41 235.72L558.77 235.12Q560.56 234.44 561.66 232.62Q562.76 230.79 562.76 227.05L562.76 194.83Q562.76 192.88 561.87 191.78Q560.98 190.67 558.26 189.39L556.64 188.63Q553.16 186.93 551.63 184.93Q550.1 182.94 550.1 180.21Q550.1 177.32 551.97 175.58Q553.84 173.84 557.15 173.84L571.35 173.84L563.02 177.07L563.02 174.18Q563.02 172.14 561.66 170.48Q560.3 168.82 558.56 166.66Q556.82 164.49 555.46 161.18Q554.1 157.86 554.1 152.5Q554.1 142.39 562.38 135.55Q570.67 128.7 586.23 128.7Q596.17 128.7 602.93 131.76Q609.69 134.82 613.13 139.84Q616.57 144.85 616.57 150.72Q616.57 157.18 613 160.62Q609.43 164.06 603.9 164.06Q597.45 164.06 593.75 160.2Q590.05 156.33 590.05 149.78L590.05 146.47Q590.05 143.5 588.52 141.92Q586.99 140.35 584.27 140.35Q581.38 140.35 579.98 142.09Q578.58 143.83 578.58 146.81Q578.58 149.53 579.98 152.16Q581.38 154.8 583.42 157.39Q585.46 159.99 587.5 162.66Q589.54 165.34 590.94 168.19Q592.35 171.03 592.35 174.09L592.35 179.7L587.41 173.84L605.95 173.84Q609.26 173.84 611.09 175.37Q612.91 176.9 612.91 179.79Q612.91 184.12 609.35 187.01Q605.77 189.91 597.53 189.91L594.98 189.91ZM646.3 239.29Q650.12 239.29 651.78 237.84Q653.44 236.4 653.44 234.53Q653.44 233.34 652.88 232.32Q652.33 231.3 650.63 230.32Q648.93 229.34 645.53 228.5Q632.19 224.93 624.88 220.97Q617.57 217.02 614.72 211.71Q611.87 206.39 611.87 198.83Q611.87 186.93 619.95 179.53Q628.02 172.14 644.68 172.14Q649.53 172.14 652.8 173.03Q656.07 173.93 658.41 174.82Q660.75 175.71 662.62 175.71Q664.23 175.71 665.46 174.82Q666.7 173.93 668.06 173.03Q669.42 172.14 671.37 172.14Q673.58 172.14 675.32 173.63Q677.07 175.12 678.17 179.37L679.87 186.16Q681.32 191.69 680.59 195.51Q679.87 199.34 676.64 200.62Q673.24 201.97 670.05 200.74Q666.87 199.51 664.32 196.11Q661.17 191.86 658.28 189.44Q655.39 187.01 652.63 186Q649.87 184.97 647.06 184.97Q643.24 184.97 641.41 186.63Q639.58 188.29 639.58 190.41Q639.58 192.03 640.51 193.35Q641.45 194.66 644.09 195.81Q646.72 196.96 651.65 198.06Q660.66 200.02 667.25 203.46Q673.84 206.91 677.45 212.34Q681.06 217.78 681.06 225.78Q681.06 233.94 676.85 239.84Q672.64 245.75 665.21 248.98Q657.77 252.21 648.17 252.21Q642.38 252.21 639.28 251.36Q636.18 250.51 634.57 249.62Q632.95 248.72 631.59 248.72Q630.14 248.72 628.91 249.62Q627.68 250.51 626.32 251.36Q624.96 252.21 623.18 252.21Q620.88 252.21 619.56 250.72Q618.25 249.24 617.57 245.5L616.04 236.57Q615.1 230.88 615.82 227.73Q616.55 224.59 620.12 223.74Q623.26 222.97 626.24 224.41Q629.21 225.86 632.1 229.85Q636.26 235.47 639.2 237.38Q642.13 239.29 646.3 239.29Z" fill="#f5bf1d"/>
<clipPath id="c68"><path d="M432.19 172.82Q432.19 180.38 429.13 186.97Q426.07 193.56 420.51 198.11Q414.94 202.66 407.46 204.1Q402.36 204.95 399 205.97Q395.64 206.99 391.74 207.71Q387.82 208.44 380.94 208.44Q376.69 208.44 372.69 207.75Q368.7 207.07 365.38 205.93Q362.07 204.78 359.69 203.5L359.35 188.54Q361.81 189.82 364.19 190.54Q366.57 191.26 369.12 191.52Q371.68 191.78 374.65 191.78Q384.6 191.78 389.82 186.84Q395.05 181.91 395.05 172.48Q395.05 165.25 392.12 159.6Q389.19 153.95 384 150.72Q378.81 147.49 371.85 147.49L368.79 147.49L368.79 223.99Q368.79 226.79 369.63 228.37Q370.49 229.94 372.87 231.3L375.42 232.75Q378.13 234.19 379.41 236.36Q380.69 238.53 380.69 241.67Q380.69 250 371.59 250L329.35 250Q324.93 250 322.59 247.83Q320.25 245.66 320.25 241.67Q320.25 235.63 325.52 232.75L328.07 231.3Q330.45 229.94 331.3 228.37Q332.15 226.79 332.15 223.99L332.15 157.01Q332.15 154.2 331.3 152.63Q330.45 151.06 328.07 149.7L325.52 148.25Q320.25 145.37 320.25 139.33Q320.25 135.33 322.59 133.17Q324.93 131 329.35 131L373.97 131Q393.01 131 405.97 136.44Q418.94 141.88 425.56 151.31Q432.19 160.75 432.19 172.82ZM380.43 200.1L415.37 195.77L430.24 225.94Q431.69 228.75 433.13 230.19Q434.57 231.64 437.38 233.09Q439.68 234.44 440.78 236.44Q441.88 238.44 441.88 241.67Q441.88 245.58 439.68 247.79Q437.47 250 432.79 250L396.58 250Q387.82 250 387.82 241.67Q387.82 239.46 388.59 237.89Q389.36 236.31 390.8 235.29L392.42 234.19Q393.35 233.51 393.48 232.45Q393.61 231.38 392.67 229.26ZM482.92 179.19L482.92 227.39Q482.92 231.47 483.38 232.96Q483.85 234.44 484.79 235.29L485.63 236.06Q487.34 237.42 488.31 239.03Q489.29 240.65 489.29 243.12Q489.29 246.34 487.38 248.17Q485.47 250 482.24 250L451.38 250Q448.06 250 446.19 248.17Q444.32 246.34 444.32 243.12Q444.32 240.65 445.26 239.03Q446.19 237.42 447.98 236.06L448.83 235.29Q449.76 234.44 450.23 232.96Q450.7 231.47 450.7 227.39L450.7 202.66Q450.7 199.34 450.06 197.98Q449.43 196.62 447.98 195.69L447.22 195.18Q445.18 193.81 444.32 192.45Q443.48 191.09 443.48 188.97Q443.48 186.5 444.92 184.72Q446.37 182.94 450.02 181.41L465.24 175.2Q469.57 173.41 472.04 172.78Q474.5 172.14 476.62 172.14Q479.77 172.14 481.34 174.09Q482.92 176.05 482.92 179.19ZM466.6 166.95Q458.1 166.95 453.21 162.37Q448.32 157.77 448.32 149.95Q448.32 142.13 453.21 137.54Q458.1 132.95 466.6 132.95Q475.1 132.95 479.98 137.54Q484.87 142.13 484.87 149.95Q484.87 157.77 479.98 162.37Q475.1 166.95 466.6 166.95ZM533.38 227.39Q533.38 231.13 534.31 233.09Q535.25 235.04 537.46 235.29L543.58 235.97Q546.98 236.31 548.47 238.14Q549.96 239.97 549.96 242.94Q549.96 250 542.9 250L497.68 250Q494.45 250 492.54 248.17Q490.62 246.34 490.62 243.12Q490.62 240.22 491.9 238.53Q493.18 236.82 495.81 235.72L497.17 235.12Q498.95 234.44 500.06 232.62Q501.16 230.79 501.16 227.05L501.16 194.83Q501.16 192.88 500.27 191.78Q499.38 190.67 496.66 189.39L495.04 188.63Q491.56 186.93 490.03 184.93Q488.5 182.94 488.5 180.21Q488.5 177.32 490.37 175.58Q492.24 173.84 495.56 173.84L509.75 173.84L501.42 177.07L501.42 174.18Q501.42 172.14 500.06 170.48Q498.7 168.82 496.96 166.66Q495.21 164.49 493.85 161.18Q492.5 157.86 492.5 152.5Q492.5 142.39 500.78 135.55Q509.07 128.7 524.62 128.7Q534.57 128.7 541.33 131.76Q548.09 134.82 551.53 139.84Q554.97 144.85 554.97 150.72Q554.97 157.18 551.4 160.62Q547.83 164.06 542.3 164.06Q535.85 164.06 532.15 160.2Q528.45 156.33 528.45 149.78L528.45 146.47Q528.45 143.5 526.92 141.92Q525.39 140.35 522.67 140.35Q519.78 140.35 518.38 142.09Q516.98 143.83 516.98 146.81Q516.98 149.53 518.38 152.16Q519.78 154.8 521.82 157.39Q523.86 159.99 525.9 162.66Q527.94 165.34 529.34 168.19Q530.75 171.03 530.75 174.09L530.75 179.7L525.81 173.84L544.35 173.84Q547.66 173.84 549.49 175.37Q551.32 176.9 551.32 179.79Q551.32 184.12 547.75 187.01Q544.17 189.91 535.93 189.91L533.38 189.91ZM594.98 227.39Q594.98 231.13 595.91 233.09Q596.85 235.04 599.06 235.29L605.18 235.97Q608.58 236.31 610.07 238.14Q611.56 239.97 611.56 242.94Q611.56 250 604.5 250L559.28 250Q556.05 250 554.14 248.17Q552.23 246.34 552.23 243.12Q552.23 240.22 553.5 238.53Q554.77 236.82 557.41 235.72L558.77 235.12Q560.56 234.44 561.66 232.62Q562.76 230.79 562.76 227.05L562.76 194.83Q562.76 192.88 561.87 191.78Q560.98 190.67 558.26 189.39L556.64 188.63Q553.16 186.93 551.63 184.93Q550.1 182.94 550.1 180.21Q550.1 177.32 551.97 175.58Q553.84 173.84 557.15 173.84L571.35 173.84L563.02 177.07L563.02 174.18Q563.02 172.14 561.66 170.48Q560.3 168.82 558.56 166.66Q556.82 164.49 555.46 161.18Q554.1 157.86 554.1 152.5Q554.1 142.39 562.38 135.55Q570.67 128.7 586.23 128.7Q596.17 128.7 602.93 131.76Q609.69 134.82 613.13 139.84Q616.57 144.85 616.57 150.72Q616.57 157.18 613 160.62Q609.43 164.06 603.9 164.06Q597.45 164.06 593.75 160.2Q590.05 156.33 590.05 149.78L590.05 146.47Q590.05 143.5 588.52 141.92Q586.99 140.35 584.27 140.35Q581.38 140.35 579.98 142.09Q578.58 143.83 578.58 146.81Q578.58 149.53 579.98 152.16Q581.38 154.8 583.42 157.39Q585.46 159.99 587.5 162.66Q589.54 165.34 590.94 168.19Q592.35 171.03 592.35 174.09L592.35 179.7L587.41 173.84L605.95 173.84Q609.26 173.84 611.09 175.37Q612.91 176.9 612.91 179.79Q612.91 184.12 609.35 187.01Q605.77 189.91 597.53 189.91L594.98 189.91ZM646.3 239.29Q650.12 239.29 651.78 237.84Q653.44 236.4 653.44 234.53Q653.44 233.34 652.88 232.32Q652.33 231.3 650.63 230.32Q648.93 229.34 645.53 228.5Q632.19 224.93 624.88 220.97Q617.57 217.02 614.72 211.71Q611.87 206.39 611.87 198.83Q611.87 186.93 619.95 179.53Q628.02 172.14 644.68 172.14Q649.53 172.14 652.8 173.03Q656.07 173.93 658.41 174.82Q660.75 175.71 662.62 175.71Q664.23 175.71 665.46 174.82Q666.7 173.93 668.06 173.03Q669.42 172.14 671.37 172.14Q673.58 172.14 675.32 173.63Q677.07 175.12 678.17 179.37L679.87 186.16Q681.32 191.69 680.59 195.51Q679.87 199.34 676.64 200.62Q673.24 201.97 670.05 200.74Q666.87 199.51 664.32 196.11Q661.17 191.86 658.28 189.44Q655.39 187.01 652.63 186Q649.87 184.97 647.06 184.97Q643.24 184.97 641.41 186.63Q639.58 188.29 639.58 190.41Q639.58 192.03 640.51 193.35Q641.45 194.66 644.09 195.81Q646.72 196.96 651.65 198.06Q660.66 200.02 667.25 203.46Q673.84 206.91 677.45 212.34Q681.06 217.78 681.06 225.78Q681.06 233.94 676.85 239.84Q672.64 245.75 665.21 248.98Q657.77 252.21 648.17 252.21Q642.38 252.21 639.28 251.36Q636.18 250.51 634.57 249.62Q632.95 248.72 631.59 248.72Q630.14 248.72 628.91 249.62Q627.68 250.51 626.32 251.36Q624.96 252.21 623.18 252.21Q620.88 252.21 619.56 250.72Q618.25 249.24 617.57 245.5L616.04 236.57Q615.1 230.88 615.82 227.73Q616.55 224.59 620.12 223.74Q623.26 222.97 626.24 224.41Q629.21 225.86 632.1 229.85Q636.26 235.47 639.2 237.38Q642.13 239.29 646.3 239.29Z"/></clipPath><g clip-path="url(#c68)">
<rect x="-5000" y="-5000" width="20000" height="20000" fill="#fde7a0"/>
<path d="M432.19 172.82Q432.19 180.38 429.13 186.97Q426.07 193.56 420.51 198.11Q414.94 202.66 407.46 204.1Q402.36 204.95 399 205.97Q395.64 206.99 391.74 207.71Q387.82 208.44 380.94 208.44Q376.69 208.44 372.69 207.75Q368.7 207.07 365.38 205.93Q362.07 204.78 359.69 203.5L359.35 188.54Q361.81 189.82 364.19 190.54Q366.57 191.26 369.12 191.52Q371.68 191.78 374.65 191.78Q384.6 191.78 389.82 186.84Q395.05 181.91 395.05 172.48Q395.05 165.25 392.12 159.6Q389.19 153.95 384 150.72Q378.81 147.49 371.85 147.49L368.79 147.49L368.79 223.99Q368.79 226.79 369.63 228.37Q370.49 229.94 372.87 231.3L375.42 232.75Q378.13 234.19 379.41 236.36Q380.69 238.53 380.69 241.67Q380.69 250 371.59 250L329.35 250Q324.93 250 322.59 247.83Q320.25 245.66 320.25 241.67Q320.25 235.63 325.52 232.75L328.07 231.3Q330.45 229.94 331.3 228.37Q332.15 226.79 332.15 223.99L332.15 157.01Q332.15 154.2 331.3 152.63Q330.45 151.06 328.07 149.7L325.52 148.25Q320.25 145.37 320.25 139.33Q320.25 135.33 322.59 133.17Q324.93 131 329.35 131L373.97 131Q393.01 131 405.97 136.44Q418.94 141.88 425.56 151.31Q432.19 160.75 432.19 172.82ZM380.43 200.1L415.37 195.77L430.24 225.94Q431.69 228.75 433.13 230.19Q434.57 231.64 437.38 233.09Q439.68 234.44 440.78 236.44Q441.88 238.44 441.88 241.67Q441.88 245.58 439.68 247.79Q437.47 250 432.79 250L396.58 250Q387.82 250 387.82 241.67Q387.82 239.46 388.59 237.89Q389.36 236.31 390.8 235.29L392.42 234.19Q393.35 233.51 393.48 232.45Q393.61 231.38 392.67 229.26ZM482.92 179.19L482.92 227.39Q482.92 231.47 483.38 232.96Q483.85 234.44 484.79 235.29L485.63 236.06Q487.34 237.42 488.31 239.03Q489.29 240.65 489.29 243.12Q489.29 246.34 487.38 248.17Q485.47 250 482.24 250L451.38 250Q448.06 250 446.19 248.17Q444.32 246.34 444.32 243.12Q444.32 240.65 445.26 239.03Q446.19 237.42 447.98 236.06L448.83 235.29Q449.76 234.44 450.23 232.96Q450.7 231.47 450.7 227.39L450.7 202.66Q450.7 199.34 450.06 197.98Q449.43 196.62 447.98 195.69L447.22 195.18Q445.18 193.81 444.32 192.45Q443.48 191.09 443.48 188.97Q443.48 186.5 444.92 184.72Q446.37 182.94 450.02 181.41L465.24 175.2Q469.57 173.41 472.04 172.78Q474.5 172.14 476.62 172.14Q479.77 172.14 481.34 174.09Q482.92 176.05 482.92 179.19ZM466.6 166.95Q458.1 166.95 453.21 162.37Q448.32 157.77 448.32 149.95Q448.32 142.13 453.21 137.54Q458.1 132.95 466.6 132.95Q475.1 132.95 479.98 137.54Q484.87 142.13 484.87 149.95Q484.87 157.77 479.98 162.37Q475.1 166.95 466.6 166.95ZM533.38 227.39Q533.38 231.13 534.31 233.09Q535.25 235.04 537.46 235.29L543.58 235.97Q546.98 236.31 548.47 238.14Q549.96 239.97 549.96 242.94Q549.96 250 542.9 250L497.68 250Q494.45 250 492.54 248.17Q490.62 246.34 490.62 243.12Q490.62 240.22 491.9 238.53Q493.18 236.82 495.81 235.72L497.17 235.12Q498.95 234.44 500.06 232.62Q501.16 230.79 501.16 227.05L501.16 194.83Q501.16 192.88 500.27 191.78Q499.38 190.67 496.66 189.39L495.04 188.63Q491.56 186.93 490.03 184.93Q488.5 182.94 488.5 180.21Q488.5 177.32 490.37 175.58Q492.24 173.84 495.56 173.84L509.75 173.84L501.42 177.07L501.42 174.18Q501.42 172.14 500.06 170.48Q498.7 168.82 496.96 166.66Q495.21 164.49 493.85 161.18Q492.5 157.86 492.5 152.5Q492.5 142.39 500.78 135.55Q509.07 128.7 524.62 128.7Q534.57 128.7 541.33 131.76Q548.09 134.82 551.53 139.84Q554.97 144.85 554.97 150.72Q554.97 157.18 551.4 160.62Q547.83 164.06 542.3 164.06Q535.85 164.06 532.15 160.2Q528.45 156.33 528.45 149.78L528.45 146.47Q528.45 143.5 526.92 141.92Q525.39 140.35 522.67 140.35Q519.78 140.35 518.38 142.09Q516.98 143.83 516.98 146.81Q516.98 149.53 518.38 152.16Q519.78 154.8 521.82 157.39Q523.86 159.99 525.9 162.66Q527.94 165.34 529.34 168.19Q530.75 171.03 530.75 174.09L530.75 179.7L525.81 173.84L544.35 173.84Q547.66 173.84 549.49 175.37Q551.32 176.9 551.32 179.79Q551.32 184.12 547.75 187.01Q544.17 189.91 535.93 189.91L533.38 189.91ZM594.98 227.39Q594.98 231.13 595.91 233.09Q596.85 235.04 599.06 235.29L605.18 235.97Q608.58 236.31 610.07 238.14Q611.56 239.97 611.56 242.94Q611.56 250 604.5 250L559.28 250Q556.05 250 554.14 248.17Q552.23 246.34 552.23 243.12Q552.23 240.22 553.5 238.53Q554.77 236.82 557.41 235.72L558.77 235.12Q560.56 234.44 561.66 232.62Q562.76 230.79 562.76 227.05L562.76 194.83Q562.76 192.88 561.87 191.78Q560.98 190.67 558.26 189.39L556.64 188.63Q553.16 186.93 551.63 184.93Q550.1 182.94 550.1 180.21Q550.1 177.32 551.97 175.58Q553.84 173.84 557.15 173.84L571.35 173.84L563.02 177.07L563.02 174.18Q563.02 172.14 561.66 170.48Q560.3 168.82 558.56 166.66Q556.82 164.49 555.46 161.18Q554.1 157.86 554.1 152.5Q554.1 142.39 562.38 135.55Q570.67 128.7 586.23 128.7Q596.17 128.7 602.93 131.76Q609.69 134.82 613.13 139.84Q616.57 144.85 616.57 150.72Q616.57 157.18 613 160.62Q609.43 164.06 603.9 164.06Q597.45 164.06 593.75 160.2Q590.05 156.33 590.05 149.78L590.05 146.47Q590.05 143.5 588.52 141.92Q586.99 140.35 584.27 140.35Q581.38 140.35 579.98 142.09Q578.58 143.83 578.58 146.81Q578.58 149.53 579.98 152.16Q581.38 154.8 583.42 157.39Q585.46 159.99 587.5 162.66Q589.54 165.34 590.94 168.19Q592.35 171.03 592.35 174.09L592.35 179.7L587.41 173.84L605.95 173.84Q609.26 173.84 611.09 175.37Q612.91 176.9 612.91 179.79Q612.91 184.12 609.35 187.01Q605.77 189.91 597.53 189.91L594.98 189.91ZM646.3 239.29Q650.12 239.29 651.78 237.84Q653.44 236.4 653.44 234.53Q653.44 233.34 652.88 232.32Q652.33 231.3 650.63 230.32Q648.93 229.34 645.53 228.5Q632.19 224.93 624.88 220.97Q617.57 217.02 614.72 211.71Q611.87 206.39 611.87 198.83Q611.87 186.93 619.95 179.53Q628.02 172.14 644.68 172.14Q649.53 172.14 652.8 173.03Q656.07 173.93 658.41 174.82Q660.75 175.71 662.62 175.71Q664.23 175.71 665.46 174.82Q666.7 173.93 668.06 173.03Q669.42 172.14 671.37 172.14Q673.58 172.14 675.32 173.63Q677.07 175.12 678.17 179.37L679.87 186.16Q681.32 191.69 680.59 195.51Q679.87 199.34 676.64 200.62Q673.24 201.97 670.05 200.74Q666.87 199.51 664.32 196.11Q661.17 191.86 658.28 189.44Q655.39 187.01 652.63 186Q649.87 184.97 647.06 184.97Q643.24 184.97 641.41 186.63Q639.58 188.29 639.58 190.41Q639.58 192.03 640.51 193.35Q641.45 194.66 644.09 195.81Q646.72 196.96 651.65 198.06Q660.66 200.02 667.25 203.46Q673.84 206.91 677.45 212.34Q681.06 217.78 681.06 225.78Q681.06 233.94 676.85 239.84Q672.64 245.75 665.21 248.98Q657.77 252.21 648.17 252.21Q642.38 252.21 639.28 251.36Q636.18 250.51 634.57 249.62Q632.95 248.72 631.59 248.72Q630.14 248.72 628.91 249.62Q627.68 250.51 626.32 251.36Q624.96 252.21 623.18 252.21Q620.88 252.21 619.56 250.72Q618.25 249.24 617.57 245.5L616.04 236.57Q615.1 230.88 615.82 227.73Q616.55 224.59 620.12 223.74Q623.26 222.97 626.24 224.41Q629.21 225.86 632.1 229.85Q636.26 235.47 639.2 237.38Q642.13 239.29 646.3 239.29Z" fill="#f5bf1d" transform="translate(5 5)"/>
</g>
<defs><path id="p69" d="M949.3 148.25L946.75 149.7Q944.37 151.06 943.52 152.63Q942.67 154.2 942.67 157.01L942.67 225.01Q942.67 229.26 944.5 231.04Q946.33 232.83 949.64 232.83L954.57 232.83Q959.08 232.83 962.18 231.64Q965.28 230.45 967.49 227.81Q969.7 225.18 971.57 220.93L975.05 212.94Q976.84 208.78 979.6 207.5Q982.37 206.22 985.85 206.99Q989.42 207.84 990.99 210.9Q992.57 213.96 991.38 218.47L985.6 240.99Q983.98 247.28 981.47 250.17Q978.97 253.06 974.21 253.06Q971.14 253.06 968.6 252.29Q966.04 251.53 963.07 250.76Q960.1 250 955.85 250L903.23 250Q898.81 250 896.47 247.83Q894.13 245.66 894.13 241.67Q894.13 235.63 899.4 232.75L901.96 231.3Q904.34 229.94 905.18 228.37Q906.03 226.79 906.03 223.99L906.03 157.01Q906.03 154.2 905.18 152.63Q904.34 151.06 901.96 149.7L899.4 148.25Q894.13 145.37 894.13 139.33Q894.13 135.33 896.47 133.17Q898.81 131 903.23 131L945.48 131Q949.98 131 952.27 133.17Q954.57 135.33 954.57 139.33Q954.57 145.37 949.3 148.25ZM1067.87 201.04Q1067.87 208.09 1064.17 211.96Q1060.47 215.83 1053.85 215.83L1012.71 215.83L1012.71 204.61L1030.38 204.61Q1035.32 204.61 1035.32 199.43Q1035.32 193.22 1033.23 190.58Q1031.15 187.95 1028.43 187.95Q1026.22 187.95 1024.39 189.39Q1022.57 190.84 1021.46 194.07Q1020.36 197.3 1020.36 202.74Q1020.36 215.83 1026.01 222.16Q1031.66 228.5 1041.18 228.5Q1045.43 228.5 1049.93 227.05Q1054.44 225.6 1058.1 222.63Q1060.13 220.93 1061.5 220.29Q1062.86 219.66 1063.96 219.66Q1065.4 219.66 1066.42 220.84Q1067.44 222.03 1067.44 224.75Q1067.44 231.72 1063.11 237.89Q1058.78 244.05 1050.74 247.88Q1042.71 251.7 1031.75 251.7Q1019.5 251.7 1010.41 246.85Q1001.32 242.01 996.3 233.21Q991.28 224.41 991.28 212.69Q991.28 201.12 996 191.94Q1000.72 182.76 1010.03 177.45Q1019.34 172.14 1032.93 172.14Q1043.9 172.14 1051.72 176.09Q1059.54 180.05 1063.7 186.63Q1067.87 193.22 1067.87 201.04ZM1030.47 144Q1033.44 136.78 1037.48 132.62Q1041.52 128.45 1047.98 129.64Q1053.51 130.66 1056.27 135.21Q1059.03 139.75 1058.18 144.77Q1057.33 149.7 1054.36 152.93Q1051.38 156.16 1045.09 159.39L1033.87 165.17Q1031.75 166.27 1029.41 166.19Q1027.07 166.1 1025.71 164.57Q1024.18 162.79 1024.48 160.62Q1024.78 158.45 1025.8 156.07ZM1121.75 238.19Q1113.17 237.16 1109.22 236.44Q1105.26 235.72 1104.2 235Q1103.14 234.28 1103.14 233.51Q1103.14 232.83 1103.61 232.19Q1104.07 231.56 1105.09 230.96L1104.5 229.6Q1093.36 229.51 1086.78 232.11Q1080.19 234.7 1077.38 238.82Q1074.58 242.94 1074.58 247.62Q1074.58 251.87 1077.09 255.44Q1079.59 259.01 1085.88 261.56Q1092.17 264.11 1103.48 265.21Q1113.34 266.15 1118.18 267.25Q1123.03 268.36 1124.6 269.63Q1126.17 270.91 1126.17 272.44Q1126.17 273.63 1124.98 274.61Q1123.79 275.58 1120.44 276.1Q1117.08 276.61 1110.45 276.61Q1098.97 276.61 1095.23 274.56Q1091.49 272.52 1091.49 269.12Q1091.49 267.43 1091.92 265.98Q1092.34 264.54 1093.28 263L1089.71 260.8Q1077.38 261.39 1071.86 265.47Q1066.33 269.55 1066.33 275.84Q1066.33 281.11 1070.29 284.64Q1074.24 288.17 1082.78 289.91Q1091.32 291.65 1105.09 291.65Q1130.51 291.65 1142.2 284.21Q1153.88 276.77 1153.88 262.5Q1153.88 255.19 1150.91 250.3Q1147.93 245.41 1140.92 242.48Q1133.91 239.54 1121.75 238.19ZM1118.18 180.05L1126.85 181.06Q1128.72 175.62 1130.34 173.8Q1131.95 171.97 1134.08 171.97Q1136.12 171.97 1137.56 173.07Q1139.01 174.18 1140.41 175.58Q1141.81 176.99 1143.64 178.09Q1145.47 179.19 1148.27 179.19Q1152.86 179.19 1155.63 175.5Q1158.39 171.8 1158.39 165.43Q1158.39 158.62 1154.99 155.1Q1151.59 151.57 1145.38 151.57Q1137.65 151.57 1131.23 156.71Q1124.81 161.85 1120.73 173.07ZM1147.68 201.21Q1147.68 193.47 1143.43 186.89Q1139.18 180.3 1130.72 176.26Q1122.26 172.22 1109.68 172.22Q1096.59 172.22 1087.33 176.09Q1078.06 179.96 1073.22 187.01Q1068.38 194.07 1068.38 203.68Q1068.38 211.75 1073.01 218.08Q1077.64 224.41 1086.73 228.03Q1095.83 231.64 1109.17 231.64Q1120.82 231.64 1129.45 227.86Q1138.07 224.07 1142.88 217.23Q1147.68 210.39 1147.68 201.21ZM1103.65 184.38Q1106.45 183.7 1109.56 187.31Q1112.66 190.93 1114.95 200.19Q1117.25 209.45 1116.23 214.13Q1115.21 218.81 1112.4 219.49Q1110.53 219.91 1108.49 218.51Q1106.45 217.1 1104.54 213.45Q1102.63 209.79 1101.1 203.68Q1099.57 197.47 1099.57 193.39Q1099.57 189.31 1100.67 187.06Q1101.78 184.81 1103.65 184.38ZM1228.09 201.04Q1228.09 208.09 1224.39 211.96Q1220.69 215.83 1214.06 215.83L1172.92 215.83L1172.92 204.61L1190.6 204.61Q1195.53 204.61 1195.53 199.43Q1195.53 193.22 1193.45 190.58Q1191.37 187.95 1188.64 187.95Q1186.43 187.95 1184.61 189.39Q1182.78 190.84 1181.67 194.07Q1180.57 197.3 1180.57 202.74Q1180.57 215.83 1186.22 222.16Q1191.88 228.5 1201.39 228.5Q1205.64 228.5 1210.15 227.05Q1214.65 225.6 1218.31 222.63Q1220.35 220.93 1221.71 220.29Q1223.07 219.66 1224.17 219.66Q1225.62 219.66 1226.64 220.84Q1227.66 222.03 1227.66 224.75Q1227.66 231.72 1223.33 237.89Q1218.99 244.05 1210.96 247.88Q1202.92 251.7 1191.96 251.7Q1179.72 251.7 1170.62 246.85Q1161.53 242.01 1156.52 233.21Q1151.5 224.41 1151.5 212.69Q1151.5 201.12 1156.22 191.94Q1160.93 182.76 1170.24 177.45Q1179.55 172.14 1193.15 172.14Q1204.12 172.14 1211.93 176.09Q1219.76 180.05 1223.92 186.63Q1228.09 193.22 1228.09 201.04ZM1267.94 179.19L1267.94 227.39Q1267.94 231.81 1268.29 233.51Q1268.62 235.21 1269.64 236.15L1270.66 237.08Q1273.38 239.54 1273.38 243.12Q1273.38 250 1267.1 250L1236.41 250Q1233.18 250 1231.27 248.17Q1229.36 246.34 1229.36 243.12Q1229.36 240.65 1230.29 239.08Q1231.23 237.5 1233.01 236.06L1233.86 235.29Q1234.8 234.53 1235.26 233.04Q1235.73 231.56 1235.73 227.39L1235.73 202.66Q1235.73 199.34 1235.09 197.98Q1234.45 196.62 1233.01 195.69L1232.25 195.18Q1230.2 193.81 1229.36 192.45Q1228.51 191.09 1228.51 188.97Q1228.51 186.5 1229.95 184.72Q1231.39 182.94 1235.05 181.41L1250.27 175.2Q1254.6 173.41 1257.07 172.78Q1259.53 172.14 1261.65 172.14Q1264.8 172.14 1266.37 174.09Q1267.94 176.05 1267.94 179.19ZM1265.23 201.63L1259.62 194.75L1262.93 191.26Q1273.05 180.64 1280.44 176.39Q1287.84 172.14 1294.98 172.14Q1304.33 172.14 1308.62 177.62Q1312.91 183.1 1313.93 193.05L1317.41 227.39Q1317.84 231.47 1318.14 232.96Q1318.43 234.44 1319.29 235.29L1320.13 236.06Q1321.84 237.59 1322.86 239.12Q1323.88 240.65 1323.88 243.12Q1323.88 246.34 1321.96 248.17Q1320.05 250 1316.82 250L1285.88 250Q1279.59 250 1279.59 243.12Q1279.59 239.38 1282.39 237.08L1283.41 236.15Q1284.43 235.21 1284.99 233.68Q1285.54 232.15 1285.12 228.24L1282.57 205.54Q1281.97 200.53 1280.44 198.11Q1278.91 195.69 1275.42 195.69Q1273.56 195.69 1271.68 196.53Q1269.82 197.38 1267.69 199.34ZM1375.38 233.09L1373.77 233L1373.77 152.16Q1373.77 148.85 1373.13 147.49Q1372.49 146.13 1371.05 145.19L1370.28 144.69Q1368.24 143.32 1367.39 141.96Q1366.54 140.6 1366.54 138.48Q1366.54 136.01 1367.99 134.23Q1369.43 132.44 1373.09 130.91L1388.3 124.71Q1392.64 122.92 1395.1 122.29Q1397.57 121.65 1399.69 121.65Q1402.84 121.65 1404.41 123.6Q1405.98 125.56 1405.98 128.7L1405.98 227.39Q1405.98 231.56 1406.49 233Q1407 234.44 1407.85 235.29L1408.7 236.06Q1410.4 237.59 1411.38 239.12Q1412.36 240.65 1412.36 243.12Q1412.36 246.34 1410.44 248.17Q1408.53 250 1405.3 250L1389.07 250Q1383.71 250 1379.55 246Q1375.38 242.01 1375.38 236.82ZM1322.77 214.56Q1322.77 201.04 1327.48 191.56Q1332.2 182.08 1340.62 177.11Q1349.03 172.14 1360.08 172.14Q1368.92 172.14 1375.34 176.13Q1381.76 180.13 1386.69 188.29L1378.02 198.83Q1375.38 193.39 1372.7 191.44Q1370.03 189.48 1366.8 189.48Q1363.57 189.48 1361.14 191.9Q1358.72 194.32 1357.36 199.04Q1356 203.76 1356 210.73Q1356 218.12 1357.53 222.84Q1359.06 227.56 1361.74 229.77Q1364.42 231.98 1367.82 231.98Q1371.22 231.98 1374.11 229.6Q1377 227.22 1379.21 221.78L1384.73 228.07Q1378.44 239.12 1370.58 245.41Q1362.72 251.7 1352.09 251.7Q1343.42 251.7 1336.79 247.15Q1330.16 242.6 1326.46 234.23Q1322.77 225.86 1322.77 214.56ZM1488.34 201.04Q1488.34 208.09 1484.64 211.96Q1480.94 215.83 1474.31 215.83L1433.17 215.83L1433.17 204.61L1450.86 204.61Q1455.78 204.61 1455.78 199.43Q1455.78 193.22 1453.7 190.58Q1451.62 187.95 1448.9 187.95Q1446.69 187.95 1444.86 189.39Q1443.03 190.84 1441.93 194.07Q1440.82 197.3 1440.82 202.74Q1440.82 215.83 1446.48 222.16Q1452.13 228.5 1461.65 228.5Q1465.9 228.5 1470.4 227.05Q1474.91 225.6 1478.56 222.63Q1480.61 220.93 1481.96 220.29Q1483.32 219.66 1484.43 219.66Q1485.88 219.66 1486.89 220.84Q1487.91 222.03 1487.91 224.75Q1487.91 231.72 1483.58 237.89Q1479.24 244.05 1471.21 247.88Q1463.18 251.7 1452.21 251.7Q1439.97 251.7 1430.88 246.85Q1421.78 242.01 1416.77 233.21Q1411.75 224.41 1411.75 212.69Q1411.75 201.12 1416.47 191.94Q1421.19 182.76 1430.5 177.45Q1439.8 172.14 1453.4 172.14Q1464.37 172.14 1472.19 176.09Q1480.01 180.05 1484.17 186.63Q1488.34 193.22 1488.34 201.04ZM1522.42 239.29Q1526.25 239.29 1527.9 237.84Q1529.56 236.4 1529.56 234.53Q1529.56 233.34 1529.01 232.32Q1528.46 231.3 1526.76 230.32Q1525.06 229.34 1521.66 228.5Q1508.31 224.93 1501 220.97Q1493.69 217.02 1490.84 211.71Q1488 206.39 1488 198.83Q1488 186.93 1496.07 179.53Q1504.15 172.14 1520.81 172.14Q1525.65 172.14 1528.92 173.03Q1532.2 173.93 1534.53 174.82Q1536.87 175.71 1538.74 175.71Q1540.36 175.71 1541.59 174.82Q1542.82 173.93 1544.18 173.03Q1545.54 172.14 1547.5 172.14Q1549.71 172.14 1551.45 173.63Q1553.19 175.12 1554.3 179.37L1556 186.16Q1557.44 191.69 1556.72 195.51Q1556 199.34 1552.77 200.62Q1549.37 201.97 1546.18 200.74Q1542.99 199.51 1540.44 196.11Q1537.3 191.86 1534.41 189.44Q1531.52 187.01 1528.75 186Q1525.99 184.97 1523.19 184.97Q1519.36 184.97 1517.53 186.63Q1515.71 188.29 1515.71 190.41Q1515.71 192.03 1516.64 193.35Q1517.58 194.66 1520.21 195.81Q1522.85 196.96 1527.78 198.06Q1536.79 200.02 1543.37 203.46Q1549.96 206.91 1553.57 212.34Q1557.19 217.78 1557.19 225.78Q1557.19 233.94 1552.98 239.84Q1548.77 245.75 1541.33 248.98Q1533.9 252.21 1524.29 252.21Q1518.51 252.21 1515.41 251.36Q1512.31 250.51 1510.69 249.62Q1509.08 248.72 1507.72 248.72Q1506.27 248.72 1505.04 249.62Q1503.81 250.51 1502.45 251.36Q1501.09 252.21 1499.3 252.21Q1497.01 252.21 1495.69 250.72Q1494.37 249.24 1493.69 245.5L1492.16 236.57Q1491.23 230.88 1491.95 227.73Q1492.67 224.59 1496.24 223.74Q1499.39 222.97 1502.36 224.41Q1505.34 225.86 1508.23 229.85Q1512.39 235.47 1515.32 237.38Q1518.26 239.29 1522.42 239.29Z"/></defs>
<g fill="#f1f1eb" stroke="#f1f1eb" stroke-width="26" stroke-linejoin="round">
<use href="#p69" transform="translate(11.00 11.00)"/>
<use href="#p69" transform="translate(10.00 10.00)"/>
<use href="#p69" transform="translate(9.00 9.00)"/>
<use href="#p69" transform="translate(8.00 8.00)"/>
<use href="#p69" transform="translate(7.00 7.00)"/>
<use href="#p69" transform="translate(6.00 6.00)"/>
<use href="#p69" transform="translate(5.00 5.00)"/>
<use href="#p69" transform="translate(4.00 4.00)"/>
<use href="#p69" transform="translate(3.00 3.00)"/>
<use href="#p69" transform="translate(2.00 2.00)"/>
<use href="#p69" transform="translate(1.00 1.00)"/>
<use href="#p69" transform="translate(0.00 0.00)"/>
</g>
<g fill="#0b0c18" stroke="#0b0c18" stroke-width="8" stroke-linejoin="round">
<use href="#p69" transform="translate(11.00 11.00)"/>
<use href="#p69" transform="translate(10.00 10.00)"/>
<use href="#p69" transform="translate(9.00 9.00)"/>
<use href="#p69" transform="translate(8.00 8.00)"/>
<use href="#p69" transform="translate(7.00 7.00)"/>
<use href="#p69" transform="translate(6.00 6.00)"/>
<use href="#p69" transform="translate(5.00 5.00)"/>
<use href="#p69" transform="translate(4.00 4.00)"/>
<use href="#p69" transform="translate(3.00 3.00)"/>
<use href="#p69" transform="translate(2.00 2.00)"/>
<use href="#p69" transform="translate(1.00 1.00)"/>
<use href="#p69" transform="translate(0.00 0.00)"/>
</g>
<g fill="#2536d0">
<use href="#p69" transform="translate(11.00 11.00)"/>
<use href="#p69" transform="translate(10.00 10.00)"/>
<use href="#p69" transform="translate(9.00 9.00)"/>
<use href="#p69" transform="translate(8.00 8.00)"/>
<use href="#p69" transform="translate(7.00 7.00)"/>
<use href="#p69" transform="translate(6.00 6.00)"/>
<use href="#p69" transform="translate(5.00 5.00)"/>
<use href="#p69" transform="translate(4.00 4.00)"/>
<use href="#p69" transform="translate(3.00 3.00)"/>
<use href="#p69" transform="translate(2.00 2.00)"/>
<use href="#p69" transform="translate(1.00 1.00)"/>
</g>
<path d="M949.3 148.25L946.75 149.7Q944.37 151.06 943.52 152.63Q942.67 154.2 942.67 157.01L942.67 225.01Q942.67 229.26 944.5 231.04Q946.33 232.83 949.64 232.83L954.57 232.83Q959.08 232.83 962.18 231.64Q965.28 230.45 967.49 227.81Q969.7 225.18 971.57 220.93L975.05 212.94Q976.84 208.78 979.6 207.5Q982.37 206.22 985.85 206.99Q989.42 207.84 990.99 210.9Q992.57 213.96 991.38 218.47L985.6 240.99Q983.98 247.28 981.47 250.17Q978.97 253.06 974.21 253.06Q971.14 253.06 968.6 252.29Q966.04 251.53 963.07 250.76Q960.1 250 955.85 250L903.23 250Q898.81 250 896.47 247.83Q894.13 245.66 894.13 241.67Q894.13 235.63 899.4 232.75L901.96 231.3Q904.34 229.94 905.18 228.37Q906.03 226.79 906.03 223.99L906.03 157.01Q906.03 154.2 905.18 152.63Q904.34 151.06 901.96 149.7L899.4 148.25Q894.13 145.37 894.13 139.33Q894.13 135.33 896.47 133.17Q898.81 131 903.23 131L945.48 131Q949.98 131 952.27 133.17Q954.57 135.33 954.57 139.33Q954.57 145.37 949.3 148.25ZM1067.87 201.04Q1067.87 208.09 1064.17 211.96Q1060.47 215.83 1053.85 215.83L1012.71 215.83L1012.71 204.61L1030.38 204.61Q1035.32 204.61 1035.32 199.43Q1035.32 193.22 1033.23 190.58Q1031.15 187.95 1028.43 187.95Q1026.22 187.95 1024.39 189.39Q1022.57 190.84 1021.46 194.07Q1020.36 197.3 1020.36 202.74Q1020.36 215.83 1026.01 222.16Q1031.66 228.5 1041.18 228.5Q1045.43 228.5 1049.93 227.05Q1054.44 225.6 1058.1 222.63Q1060.13 220.93 1061.5 220.29Q1062.86 219.66 1063.96 219.66Q1065.4 219.66 1066.42 220.84Q1067.44 222.03 1067.44 224.75Q1067.44 231.72 1063.11 237.89Q1058.78 244.05 1050.74 247.88Q1042.71 251.7 1031.75 251.7Q1019.5 251.7 1010.41 246.85Q1001.32 242.01 996.3 233.21Q991.28 224.41 991.28 212.69Q991.28 201.12 996 191.94Q1000.72 182.76 1010.03 177.45Q1019.34 172.14 1032.93 172.14Q1043.9 172.14 1051.72 176.09Q1059.54 180.05 1063.7 186.63Q1067.87 193.22 1067.87 201.04ZM1030.47 144Q1033.44 136.78 1037.48 132.62Q1041.52 128.45 1047.98 129.64Q1053.51 130.66 1056.27 135.21Q1059.03 139.75 1058.18 144.77Q1057.33 149.7 1054.36 152.93Q1051.38 156.16 1045.09 159.39L1033.87 165.17Q1031.75 166.27 1029.41 166.19Q1027.07 166.1 1025.71 164.57Q1024.18 162.79 1024.48 160.62Q1024.78 158.45 1025.8 156.07ZM1121.75 238.19Q1113.17 237.16 1109.22 236.44Q1105.26 235.72 1104.2 235Q1103.14 234.28 1103.14 233.51Q1103.14 232.83 1103.61 232.19Q1104.07 231.56 1105.09 230.96L1104.5 229.6Q1093.36 229.51 1086.78 232.11Q1080.19 234.7 1077.38 238.82Q1074.58 242.94 1074.58 247.62Q1074.58 251.87 1077.09 255.44Q1079.59 259.01 1085.88 261.56Q1092.17 264.11 1103.48 265.21Q1113.34 266.15 1118.18 267.25Q1123.03 268.36 1124.6 269.63Q1126.17 270.91 1126.17 272.44Q1126.17 273.63 1124.98 274.61Q1123.79 275.58 1120.44 276.1Q1117.08 276.61 1110.45 276.61Q1098.97 276.61 1095.23 274.56Q1091.49 272.52 1091.49 269.12Q1091.49 267.43 1091.92 265.98Q1092.34 264.54 1093.28 263L1089.71 260.8Q1077.38 261.39 1071.86 265.47Q1066.33 269.55 1066.33 275.84Q1066.33 281.11 1070.29 284.64Q1074.24 288.17 1082.78 289.91Q1091.32 291.65 1105.09 291.65Q1130.51 291.65 1142.2 284.21Q1153.88 276.77 1153.88 262.5Q1153.88 255.19 1150.91 250.3Q1147.93 245.41 1140.92 242.48Q1133.91 239.54 1121.75 238.19ZM1118.18 180.05L1126.85 181.06Q1128.72 175.62 1130.34 173.8Q1131.95 171.97 1134.08 171.97Q1136.12 171.97 1137.56 173.07Q1139.01 174.18 1140.41 175.58Q1141.81 176.99 1143.64 178.09Q1145.47 179.19 1148.27 179.19Q1152.86 179.19 1155.63 175.5Q1158.39 171.8 1158.39 165.43Q1158.39 158.62 1154.99 155.1Q1151.59 151.57 1145.38 151.57Q1137.65 151.57 1131.23 156.71Q1124.81 161.85 1120.73 173.07ZM1147.68 201.21Q1147.68 193.47 1143.43 186.89Q1139.18 180.3 1130.72 176.26Q1122.26 172.22 1109.68 172.22Q1096.59 172.22 1087.33 176.09Q1078.06 179.96 1073.22 187.01Q1068.38 194.07 1068.38 203.68Q1068.38 211.75 1073.01 218.08Q1077.64 224.41 1086.73 228.03Q1095.83 231.64 1109.17 231.64Q1120.82 231.64 1129.45 227.86Q1138.07 224.07 1142.88 217.23Q1147.68 210.39 1147.68 201.21ZM1103.65 184.38Q1106.45 183.7 1109.56 187.31Q1112.66 190.93 1114.95 200.19Q1117.25 209.45 1116.23 214.13Q1115.21 218.81 1112.4 219.49Q1110.53 219.91 1108.49 218.51Q1106.45 217.1 1104.54 213.45Q1102.63 209.79 1101.1 203.68Q1099.57 197.47 1099.57 193.39Q1099.57 189.31 1100.67 187.06Q1101.78 184.81 1103.65 184.38ZM1228.09 201.04Q1228.09 208.09 1224.39 211.96Q1220.69 215.83 1214.06 215.83L1172.92 215.83L1172.92 204.61L1190.6 204.61Q1195.53 204.61 1195.53 199.43Q1195.53 193.22 1193.45 190.58Q1191.37 187.95 1188.64 187.95Q1186.43 187.95 1184.61 189.39Q1182.78 190.84 1181.67 194.07Q1180.57 197.3 1180.57 202.74Q1180.57 215.83 1186.22 222.16Q1191.88 228.5 1201.39 228.5Q1205.64 228.5 1210.15 227.05Q1214.65 225.6 1218.31 222.63Q1220.35 220.93 1221.71 220.29Q1223.07 219.66 1224.17 219.66Q1225.62 219.66 1226.64 220.84Q1227.66 222.03 1227.66 224.75Q1227.66 231.72 1223.33 237.89Q1218.99 244.05 1210.96 247.88Q1202.92 251.7 1191.96 251.7Q1179.72 251.7 1170.62 246.85Q1161.53 242.01 1156.52 233.21Q1151.5 224.41 1151.5 212.69Q1151.5 201.12 1156.22 191.94Q1160.93 182.76 1170.24 177.45Q1179.55 172.14 1193.15 172.14Q1204.12 172.14 1211.93 176.09Q1219.76 180.05 1223.92 186.63Q1228.09 193.22 1228.09 201.04ZM1267.94 179.19L1267.94 227.39Q1267.94 231.81 1268.29 233.51Q1268.62 235.21 1269.64 236.15L1270.66 237.08Q1273.38 239.54 1273.38 243.12Q1273.38 250 1267.1 250L1236.41 250Q1233.18 250 1231.27 248.17Q1229.36 246.34 1229.36 243.12Q1229.36 240.65 1230.29 239.08Q1231.23 237.5 1233.01 236.06L1233.86 235.29Q1234.8 234.53 1235.26 233.04Q1235.73 231.56 1235.73 227.39L1235.73 202.66Q1235.73 199.34 1235.09 197.98Q1234.45 196.62 1233.01 195.69L1232.25 195.18Q1230.2 193.81 1229.36 192.45Q1228.51 191.09 1228.51 188.97Q1228.51 186.5 1229.95 184.72Q1231.39 182.94 1235.05 181.41L1250.27 175.2Q1254.6 173.41 1257.07 172.78Q1259.53 172.14 1261.65 172.14Q1264.8 172.14 1266.37 174.09Q1267.94 176.05 1267.94 179.19ZM1265.23 201.63L1259.62 194.75L1262.93 191.26Q1273.05 180.64 1280.44 176.39Q1287.84 172.14 1294.98 172.14Q1304.33 172.14 1308.62 177.62Q1312.91 183.1 1313.93 193.05L1317.41 227.39Q1317.84 231.47 1318.14 232.96Q1318.43 234.44 1319.29 235.29L1320.13 236.06Q1321.84 237.59 1322.86 239.12Q1323.88 240.65 1323.88 243.12Q1323.88 246.34 1321.96 248.17Q1320.05 250 1316.82 250L1285.88 250Q1279.59 250 1279.59 243.12Q1279.59 239.38 1282.39 237.08L1283.41 236.15Q1284.43 235.21 1284.99 233.68Q1285.54 232.15 1285.12 228.24L1282.57 205.54Q1281.97 200.53 1280.44 198.11Q1278.91 195.69 1275.42 195.69Q1273.56 195.69 1271.68 196.53Q1269.82 197.38 1267.69 199.34ZM1375.38 233.09L1373.77 233L1373.77 152.16Q1373.77 148.85 1373.13 147.49Q1372.49 146.13 1371.05 145.19L1370.28 144.69Q1368.24 143.32 1367.39 141.96Q1366.54 140.6 1366.54 138.48Q1366.54 136.01 1367.99 134.23Q1369.43 132.44 1373.09 130.91L1388.3 124.71Q1392.64 122.92 1395.1 122.29Q1397.57 121.65 1399.69 121.65Q1402.84 121.65 1404.41 123.6Q1405.98 125.56 1405.98 128.7L1405.98 227.39Q1405.98 231.56 1406.49 233Q1407 234.44 1407.85 235.29L1408.7 236.06Q1410.4 237.59 1411.38 239.12Q1412.36 240.65 1412.36 243.12Q1412.36 246.34 1410.44 248.17Q1408.53 250 1405.3 250L1389.07 250Q1383.71 250 1379.55 246Q1375.38 242.01 1375.38 236.82ZM1322.77 214.56Q1322.77 201.04 1327.48 191.56Q1332.2 182.08 1340.62 177.11Q1349.03 172.14 1360.08 172.14Q1368.92 172.14 1375.34 176.13Q1381.76 180.13 1386.69 188.29L1378.02 198.83Q1375.38 193.39 1372.7 191.44Q1370.03 189.48 1366.8 189.48Q1363.57 189.48 1361.14 191.9Q1358.72 194.32 1357.36 199.04Q1356 203.76 1356 210.73Q1356 218.12 1357.53 222.84Q1359.06 227.56 1361.74 229.77Q1364.42 231.98 1367.82 231.98Q1371.22 231.98 1374.11 229.6Q1377 227.22 1379.21 221.78L1384.73 228.07Q1378.44 239.12 1370.58 245.41Q1362.72 251.7 1352.09 251.7Q1343.42 251.7 1336.79 247.15Q1330.16 242.6 1326.46 234.23Q1322.77 225.86 1322.77 214.56ZM1488.34 201.04Q1488.34 208.09 1484.64 211.96Q1480.94 215.83 1474.31 215.83L1433.17 215.83L1433.17 204.61L1450.86 204.61Q1455.78 204.61 1455.78 199.43Q1455.78 193.22 1453.7 190.58Q1451.62 187.95 1448.9 187.95Q1446.69 187.95 1444.86 189.39Q1443.03 190.84 1441.93 194.07Q1440.82 197.3 1440.82 202.74Q1440.82 215.83 1446.48 222.16Q1452.13 228.5 1461.65 228.5Q1465.9 228.5 1470.4 227.05Q1474.91 225.6 1478.56 222.63Q1480.61 220.93 1481.96 220.29Q1483.32 219.66 1484.43 219.66Q1485.88 219.66 1486.89 220.84Q1487.91 222.03 1487.91 224.75Q1487.91 231.72 1483.58 237.89Q1479.24 244.05 1471.21 247.88Q1463.18 251.7 1452.21 251.7Q1439.97 251.7 1430.88 246.85Q1421.78 242.01 1416.77 233.21Q1411.75 224.41 1411.75 212.69Q1411.75 201.12 1416.47 191.94Q1421.19 182.76 1430.5 177.45Q1439.8 172.14 1453.4 172.14Q1464.37 172.14 1472.19 176.09Q1480.01 180.05 1484.17 186.63Q1488.34 193.22 1488.34 201.04ZM1522.42 239.29Q1526.25 239.29 1527.9 237.84Q1529.56 236.4 1529.56 234.53Q1529.56 233.34 1529.01 232.32Q1528.46 231.3 1526.76 230.32Q1525.06 229.34 1521.66 228.5Q1508.31 224.93 1501 220.97Q1493.69 217.02 1490.84 211.71Q1488 206.39 1488 198.83Q1488 186.93 1496.07 179.53Q1504.15 172.14 1520.81 172.14Q1525.65 172.14 1528.92 173.03Q1532.2 173.93 1534.53 174.82Q1536.87 175.71 1538.74 175.71Q1540.36 175.71 1541.59 174.82Q1542.82 173.93 1544.18 173.03Q1545.54 172.14 1547.5 172.14Q1549.71 172.14 1551.45 173.63Q1553.19 175.12 1554.3 179.37L1556 186.16Q1557.44 191.69 1556.72 195.51Q1556 199.34 1552.77 200.62Q1549.37 201.97 1546.18 200.74Q1542.99 199.51 1540.44 196.11Q1537.3 191.86 1534.41 189.44Q1531.52 187.01 1528.75 186Q1525.99 184.97 1523.19 184.97Q1519.36 184.97 1517.53 186.63Q1515.71 188.29 1515.71 190.41Q1515.71 192.03 1516.64 193.35Q1517.58 194.66 1520.21 195.81Q1522.85 196.96 1527.78 198.06Q1536.79 200.02 1543.37 203.46Q1549.96 206.91 1553.57 212.34Q1557.19 217.78 1557.19 225.78Q1557.19 233.94 1552.98 239.84Q1548.77 245.75 1541.33 248.98Q1533.9 252.21 1524.29 252.21Q1518.51 252.21 1515.41 251.36Q1512.31 250.51 1510.69 249.62Q1509.08 248.72 1507.72 248.72Q1506.27 248.72 1505.04 249.62Q1503.81 250.51 1502.45 251.36Q1501.09 252.21 1499.3 252.21Q1497.01 252.21 1495.69 250.72Q1494.37 249.24 1493.69 245.5L1492.16 236.57Q1491.23 230.88 1491.95 227.73Q1492.67 224.59 1496.24 223.74Q1499.39 222.97 1502.36 224.41Q1505.34 225.86 1508.23 229.85Q1512.39 235.47 1515.32 237.38Q1518.26 239.29 1522.42 239.29Z" fill="#f5bf1d"/>
<clipPath id="c70"><path d="M949.3 148.25L946.75 149.7Q944.37 151.06 943.52 152.63Q942.67 154.2 942.67 157.01L942.67 225.01Q942.67 229.26 944.5 231.04Q946.33 232.83 949.64 232.83L954.57 232.83Q959.08 232.83 962.18 231.64Q965.28 230.45 967.49 227.81Q969.7 225.18 971.57 220.93L975.05 212.94Q976.84 208.78 979.6 207.5Q982.37 206.22 985.85 206.99Q989.42 207.84 990.99 210.9Q992.57 213.96 991.38 218.47L985.6 240.99Q983.98 247.28 981.47 250.17Q978.97 253.06 974.21 253.06Q971.14 253.06 968.6 252.29Q966.04 251.53 963.07 250.76Q960.1 250 955.85 250L903.23 250Q898.81 250 896.47 247.83Q894.13 245.66 894.13 241.67Q894.13 235.63 899.4 232.75L901.96 231.3Q904.34 229.94 905.18 228.37Q906.03 226.79 906.03 223.99L906.03 157.01Q906.03 154.2 905.18 152.63Q904.34 151.06 901.96 149.7L899.4 148.25Q894.13 145.37 894.13 139.33Q894.13 135.33 896.47 133.17Q898.81 131 903.23 131L945.48 131Q949.98 131 952.27 133.17Q954.57 135.33 954.57 139.33Q954.57 145.37 949.3 148.25ZM1067.87 201.04Q1067.87 208.09 1064.17 211.96Q1060.47 215.83 1053.85 215.83L1012.71 215.83L1012.71 204.61L1030.38 204.61Q1035.32 204.61 1035.32 199.43Q1035.32 193.22 1033.23 190.58Q1031.15 187.95 1028.43 187.95Q1026.22 187.95 1024.39 189.39Q1022.57 190.84 1021.46 194.07Q1020.36 197.3 1020.36 202.74Q1020.36 215.83 1026.01 222.16Q1031.66 228.5 1041.18 228.5Q1045.43 228.5 1049.93 227.05Q1054.44 225.6 1058.1 222.63Q1060.13 220.93 1061.5 220.29Q1062.86 219.66 1063.96 219.66Q1065.4 219.66 1066.42 220.84Q1067.44 222.03 1067.44 224.75Q1067.44 231.72 1063.11 237.89Q1058.78 244.05 1050.74 247.88Q1042.71 251.7 1031.75 251.7Q1019.5 251.7 1010.41 246.85Q1001.32 242.01 996.3 233.21Q991.28 224.41 991.28 212.69Q991.28 201.12 996 191.94Q1000.72 182.76 1010.03 177.45Q1019.34 172.14 1032.93 172.14Q1043.9 172.14 1051.72 176.09Q1059.54 180.05 1063.7 186.63Q1067.87 193.22 1067.87 201.04ZM1030.47 144Q1033.44 136.78 1037.48 132.62Q1041.52 128.45 1047.98 129.64Q1053.51 130.66 1056.27 135.21Q1059.03 139.75 1058.18 144.77Q1057.33 149.7 1054.36 152.93Q1051.38 156.16 1045.09 159.39L1033.87 165.17Q1031.75 166.27 1029.41 166.19Q1027.07 166.1 1025.71 164.57Q1024.18 162.79 1024.48 160.62Q1024.78 158.45 1025.8 156.07ZM1121.75 238.19Q1113.17 237.16 1109.22 236.44Q1105.26 235.72 1104.2 235Q1103.14 234.28 1103.14 233.51Q1103.14 232.83 1103.61 232.19Q1104.07 231.56 1105.09 230.96L1104.5 229.6Q1093.36 229.51 1086.78 232.11Q1080.19 234.7 1077.38 238.82Q1074.58 242.94 1074.58 247.62Q1074.58 251.87 1077.09 255.44Q1079.59 259.01 1085.88 261.56Q1092.17 264.11 1103.48 265.21Q1113.34 266.15 1118.18 267.25Q1123.03 268.36 1124.6 269.63Q1126.17 270.91 1126.17 272.44Q1126.17 273.63 1124.98 274.61Q1123.79 275.58 1120.44 276.1Q1117.08 276.61 1110.45 276.61Q1098.97 276.61 1095.23 274.56Q1091.49 272.52 1091.49 269.12Q1091.49 267.43 1091.92 265.98Q1092.34 264.54 1093.28 263L1089.71 260.8Q1077.38 261.39 1071.86 265.47Q1066.33 269.55 1066.33 275.84Q1066.33 281.11 1070.29 284.64Q1074.24 288.17 1082.78 289.91Q1091.32 291.65 1105.09 291.65Q1130.51 291.65 1142.2 284.21Q1153.88 276.77 1153.88 262.5Q1153.88 255.19 1150.91 250.3Q1147.93 245.41 1140.92 242.48Q1133.91 239.54 1121.75 238.19ZM1118.18 180.05L1126.85 181.06Q1128.72 175.62 1130.34 173.8Q1131.95 171.97 1134.08 171.97Q1136.12 171.97 1137.56 173.07Q1139.01 174.18 1140.41 175.58Q1141.81 176.99 1143.64 178.09Q1145.47 179.19 1148.27 179.19Q1152.86 179.19 1155.63 175.5Q1158.39 171.8 1158.39 165.43Q1158.39 158.62 1154.99 155.1Q1151.59 151.57 1145.38 151.57Q1137.65 151.57 1131.23 156.71Q1124.81 161.85 1120.73 173.07ZM1147.68 201.21Q1147.68 193.47 1143.43 186.89Q1139.18 180.3 1130.72 176.26Q1122.26 172.22 1109.68 172.22Q1096.59 172.22 1087.33 176.09Q1078.06 179.96 1073.22 187.01Q1068.38 194.07 1068.38 203.68Q1068.38 211.75 1073.01 218.08Q1077.64 224.41 1086.73 228.03Q1095.83 231.64 1109.17 231.64Q1120.82 231.64 1129.45 227.86Q1138.07 224.07 1142.88 217.23Q1147.68 210.39 1147.68 201.21ZM1103.65 184.38Q1106.45 183.7 1109.56 187.31Q1112.66 190.93 1114.95 200.19Q1117.25 209.45 1116.23 214.13Q1115.21 218.81 1112.4 219.49Q1110.53 219.91 1108.49 218.51Q1106.45 217.1 1104.54 213.45Q1102.63 209.79 1101.1 203.68Q1099.57 197.47 1099.57 193.39Q1099.57 189.31 1100.67 187.06Q1101.78 184.81 1103.65 184.38ZM1228.09 201.04Q1228.09 208.09 1224.39 211.96Q1220.69 215.83 1214.06 215.83L1172.92 215.83L1172.92 204.61L1190.6 204.61Q1195.53 204.61 1195.53 199.43Q1195.53 193.22 1193.45 190.58Q1191.37 187.95 1188.64 187.95Q1186.43 187.95 1184.61 189.39Q1182.78 190.84 1181.67 194.07Q1180.57 197.3 1180.57 202.74Q1180.57 215.83 1186.22 222.16Q1191.88 228.5 1201.39 228.5Q1205.64 228.5 1210.15 227.05Q1214.65 225.6 1218.31 222.63Q1220.35 220.93 1221.71 220.29Q1223.07 219.66 1224.17 219.66Q1225.62 219.66 1226.64 220.84Q1227.66 222.03 1227.66 224.75Q1227.66 231.72 1223.33 237.89Q1218.99 244.05 1210.96 247.88Q1202.92 251.7 1191.96 251.7Q1179.72 251.7 1170.62 246.85Q1161.53 242.01 1156.52 233.21Q1151.5 224.41 1151.5 212.69Q1151.5 201.12 1156.22 191.94Q1160.93 182.76 1170.24 177.45Q1179.55 172.14 1193.15 172.14Q1204.12 172.14 1211.93 176.09Q1219.76 180.05 1223.92 186.63Q1228.09 193.22 1228.09 201.04ZM1267.94 179.19L1267.94 227.39Q1267.94 231.81 1268.29 233.51Q1268.62 235.21 1269.64 236.15L1270.66 237.08Q1273.38 239.54 1273.38 243.12Q1273.38 250 1267.1 250L1236.41 250Q1233.18 250 1231.27 248.17Q1229.36 246.34 1229.36 243.12Q1229.36 240.65 1230.29 239.08Q1231.23 237.5 1233.01 236.06L1233.86 235.29Q1234.8 234.53 1235.26 233.04Q1235.73 231.56 1235.73 227.39L1235.73 202.66Q1235.73 199.34 1235.09 197.98Q1234.45 196.62 1233.01 195.69L1232.25 195.18Q1230.2 193.81 1229.36 192.45Q1228.51 191.09 1228.51 188.97Q1228.51 186.5 1229.95 184.72Q1231.39 182.94 1235.05 181.41L1250.27 175.2Q1254.6 173.41 1257.07 172.78Q1259.53 172.14 1261.65 172.14Q1264.8 172.14 1266.37 174.09Q1267.94 176.05 1267.94 179.19ZM1265.23 201.63L1259.62 194.75L1262.93 191.26Q1273.05 180.64 1280.44 176.39Q1287.84 172.14 1294.98 172.14Q1304.33 172.14 1308.62 177.62Q1312.91 183.1 1313.93 193.05L1317.41 227.39Q1317.84 231.47 1318.14 232.96Q1318.43 234.44 1319.29 235.29L1320.13 236.06Q1321.84 237.59 1322.86 239.12Q1323.88 240.65 1323.88 243.12Q1323.88 246.34 1321.96 248.17Q1320.05 250 1316.82 250L1285.88 250Q1279.59 250 1279.59 243.12Q1279.59 239.38 1282.39 237.08L1283.41 236.15Q1284.43 235.21 1284.99 233.68Q1285.54 232.15 1285.12 228.24L1282.57 205.54Q1281.97 200.53 1280.44 198.11Q1278.91 195.69 1275.42 195.69Q1273.56 195.69 1271.68 196.53Q1269.82 197.38 1267.69 199.34ZM1375.38 233.09L1373.77 233L1373.77 152.16Q1373.77 148.85 1373.13 147.49Q1372.49 146.13 1371.05 145.19L1370.28 144.69Q1368.24 143.32 1367.39 141.96Q1366.54 140.6 1366.54 138.48Q1366.54 136.01 1367.99 134.23Q1369.43 132.44 1373.09 130.91L1388.3 124.71Q1392.64 122.92 1395.1 122.29Q1397.57 121.65 1399.69 121.65Q1402.84 121.65 1404.41 123.6Q1405.98 125.56 1405.98 128.7L1405.98 227.39Q1405.98 231.56 1406.49 233Q1407 234.44 1407.85 235.29L1408.7 236.06Q1410.4 237.59 1411.38 239.12Q1412.36 240.65 1412.36 243.12Q1412.36 246.34 1410.44 248.17Q1408.53 250 1405.3 250L1389.07 250Q1383.71 250 1379.55 246Q1375.38 242.01 1375.38 236.82ZM1322.77 214.56Q1322.77 201.04 1327.48 191.56Q1332.2 182.08 1340.62 177.11Q1349.03 172.14 1360.08 172.14Q1368.92 172.14 1375.34 176.13Q1381.76 180.13 1386.69 188.29L1378.02 198.83Q1375.38 193.39 1372.7 191.44Q1370.03 189.48 1366.8 189.48Q1363.57 189.48 1361.14 191.9Q1358.72 194.32 1357.36 199.04Q1356 203.76 1356 210.73Q1356 218.12 1357.53 222.84Q1359.06 227.56 1361.74 229.77Q1364.42 231.98 1367.82 231.98Q1371.22 231.98 1374.11 229.6Q1377 227.22 1379.21 221.78L1384.73 228.07Q1378.44 239.12 1370.58 245.41Q1362.72 251.7 1352.09 251.7Q1343.42 251.7 1336.79 247.15Q1330.16 242.6 1326.46 234.23Q1322.77 225.86 1322.77 214.56ZM1488.34 201.04Q1488.34 208.09 1484.64 211.96Q1480.94 215.83 1474.31 215.83L1433.17 215.83L1433.17 204.61L1450.86 204.61Q1455.78 204.61 1455.78 199.43Q1455.78 193.22 1453.7 190.58Q1451.62 187.95 1448.9 187.95Q1446.69 187.95 1444.86 189.39Q1443.03 190.84 1441.93 194.07Q1440.82 197.3 1440.82 202.74Q1440.82 215.83 1446.48 222.16Q1452.13 228.5 1461.65 228.5Q1465.9 228.5 1470.4 227.05Q1474.91 225.6 1478.56 222.63Q1480.61 220.93 1481.96 220.29Q1483.32 219.66 1484.43 219.66Q1485.88 219.66 1486.89 220.84Q1487.91 222.03 1487.91 224.75Q1487.91 231.72 1483.58 237.89Q1479.24 244.05 1471.21 247.88Q1463.18 251.7 1452.21 251.7Q1439.97 251.7 1430.88 246.85Q1421.78 242.01 1416.77 233.21Q1411.75 224.41 1411.75 212.69Q1411.75 201.12 1416.47 191.94Q1421.19 182.76 1430.5 177.45Q1439.8 172.14 1453.4 172.14Q1464.37 172.14 1472.19 176.09Q1480.01 180.05 1484.17 186.63Q1488.34 193.22 1488.34 201.04ZM1522.42 239.29Q1526.25 239.29 1527.9 237.84Q1529.56 236.4 1529.56 234.53Q1529.56 233.34 1529.01 232.32Q1528.46 231.3 1526.76 230.32Q1525.06 229.34 1521.66 228.5Q1508.31 224.93 1501 220.97Q1493.69 217.02 1490.84 211.71Q1488 206.39 1488 198.83Q1488 186.93 1496.07 179.53Q1504.15 172.14 1520.81 172.14Q1525.65 172.14 1528.92 173.03Q1532.2 173.93 1534.53 174.82Q1536.87 175.71 1538.74 175.71Q1540.36 175.71 1541.59 174.82Q1542.82 173.93 1544.18 173.03Q1545.54 172.14 1547.5 172.14Q1549.71 172.14 1551.45 173.63Q1553.19 175.12 1554.3 179.37L1556 186.16Q1557.44 191.69 1556.72 195.51Q1556 199.34 1552.77 200.62Q1549.37 201.97 1546.18 200.74Q1542.99 199.51 1540.44 196.11Q1537.3 191.86 1534.41 189.44Q1531.52 187.01 1528.75 186Q1525.99 184.97 1523.19 184.97Q1519.36 184.97 1517.53 186.63Q1515.71 188.29 1515.71 190.41Q1515.71 192.03 1516.64 193.35Q1517.58 194.66 1520.21 195.81Q1522.85 196.96 1527.78 198.06Q1536.79 200.02 1543.37 203.46Q1549.96 206.91 1553.57 212.34Q1557.19 217.78 1557.19 225.78Q1557.19 233.94 1552.98 239.84Q1548.77 245.75 1541.33 248.98Q1533.9 252.21 1524.29 252.21Q1518.51 252.21 1515.41 251.36Q1512.31 250.51 1510.69 249.62Q1509.08 248.72 1507.72 248.72Q1506.27 248.72 1505.04 249.62Q1503.81 250.51 1502.45 251.36Q1501.09 252.21 1499.3 252.21Q1497.01 252.21 1495.69 250.72Q1494.37 249.24 1493.69 245.5L1492.16 236.57Q1491.23 230.88 1491.95 227.73Q1492.67 224.59 1496.24 223.74Q1499.39 222.97 1502.36 224.41Q1505.34 225.86 1508.23 229.85Q1512.39 235.47 1515.32 237.38Q1518.26 239.29 1522.42 239.29Z"/></clipPath><g clip-path="url(#c70)">
<rect x="-5000" y="-5000" width="20000" height="20000" fill="#fde7a0"/>
<path d="M949.3 148.25L946.75 149.7Q944.37 151.06 943.52 152.63Q942.67 154.2 942.67 157.01L942.67 225.01Q942.67 229.26 944.5 231.04Q946.33 232.83 949.64 232.83L954.57 232.83Q959.08 232.83 962.18 231.64Q965.28 230.45 967.49 227.81Q969.7 225.18 971.57 220.93L975.05 212.94Q976.84 208.78 979.6 207.5Q982.37 206.22 985.85 206.99Q989.42 207.84 990.99 210.9Q992.57 213.96 991.38 218.47L985.6 240.99Q983.98 247.28 981.47 250.17Q978.97 253.06 974.21 253.06Q971.14 253.06 968.6 252.29Q966.04 251.53 963.07 250.76Q960.1 250 955.85 250L903.23 250Q898.81 250 896.47 247.83Q894.13 245.66 894.13 241.67Q894.13 235.63 899.4 232.75L901.96 231.3Q904.34 229.94 905.18 228.37Q906.03 226.79 906.03 223.99L906.03 157.01Q906.03 154.2 905.18 152.63Q904.34 151.06 901.96 149.7L899.4 148.25Q894.13 145.37 894.13 139.33Q894.13 135.33 896.47 133.17Q898.81 131 903.23 131L945.48 131Q949.98 131 952.27 133.17Q954.57 135.33 954.57 139.33Q954.57 145.37 949.3 148.25ZM1067.87 201.04Q1067.87 208.09 1064.17 211.96Q1060.47 215.83 1053.85 215.83L1012.71 215.83L1012.71 204.61L1030.38 204.61Q1035.32 204.61 1035.32 199.43Q1035.32 193.22 1033.23 190.58Q1031.15 187.95 1028.43 187.95Q1026.22 187.95 1024.39 189.39Q1022.57 190.84 1021.46 194.07Q1020.36 197.3 1020.36 202.74Q1020.36 215.83 1026.01 222.16Q1031.66 228.5 1041.18 228.5Q1045.43 228.5 1049.93 227.05Q1054.44 225.6 1058.1 222.63Q1060.13 220.93 1061.5 220.29Q1062.86 219.66 1063.96 219.66Q1065.4 219.66 1066.42 220.84Q1067.44 222.03 1067.44 224.75Q1067.44 231.72 1063.11 237.89Q1058.78 244.05 1050.74 247.88Q1042.71 251.7 1031.75 251.7Q1019.5 251.7 1010.41 246.85Q1001.32 242.01 996.3 233.21Q991.28 224.41 991.28 212.69Q991.28 201.12 996 191.94Q1000.72 182.76 1010.03 177.45Q1019.34 172.14 1032.93 172.14Q1043.9 172.14 1051.72 176.09Q1059.54 180.05 1063.7 186.63Q1067.87 193.22 1067.87 201.04ZM1030.47 144Q1033.44 136.78 1037.48 132.62Q1041.52 128.45 1047.98 129.64Q1053.51 130.66 1056.27 135.21Q1059.03 139.75 1058.18 144.77Q1057.33 149.7 1054.36 152.93Q1051.38 156.16 1045.09 159.39L1033.87 165.17Q1031.75 166.27 1029.41 166.19Q1027.07 166.1 1025.71 164.57Q1024.18 162.79 1024.48 160.62Q1024.78 158.45 1025.8 156.07ZM1121.75 238.19Q1113.17 237.16 1109.22 236.44Q1105.26 235.72 1104.2 235Q1103.14 234.28 1103.14 233.51Q1103.14 232.83 1103.61 232.19Q1104.07 231.56 1105.09 230.96L1104.5 229.6Q1093.36 229.51 1086.78 232.11Q1080.19 234.7 1077.38 238.82Q1074.58 242.94 1074.58 247.62Q1074.58 251.87 1077.09 255.44Q1079.59 259.01 1085.88 261.56Q1092.17 264.11 1103.48 265.21Q1113.34 266.15 1118.18 267.25Q1123.03 268.36 1124.6 269.63Q1126.17 270.91 1126.17 272.44Q1126.17 273.63 1124.98 274.61Q1123.79 275.58 1120.44 276.1Q1117.08 276.61 1110.45 276.61Q1098.97 276.61 1095.23 274.56Q1091.49 272.52 1091.49 269.12Q1091.49 267.43 1091.92 265.98Q1092.34 264.54 1093.28 263L1089.71 260.8Q1077.38 261.39 1071.86 265.47Q1066.33 269.55 1066.33 275.84Q1066.33 281.11 1070.29 284.64Q1074.24 288.17 1082.78 289.91Q1091.32 291.65 1105.09 291.65Q1130.51 291.65 1142.2 284.21Q1153.88 276.77 1153.88 262.5Q1153.88 255.19 1150.91 250.3Q1147.93 245.41 1140.92 242.48Q1133.91 239.54 1121.75 238.19ZM1118.18 180.05L1126.85 181.06Q1128.72 175.62 1130.34 173.8Q1131.95 171.97 1134.08 171.97Q1136.12 171.97 1137.56 173.07Q1139.01 174.18 1140.41 175.58Q1141.81 176.99 1143.64 178.09Q1145.47 179.19 1148.27 179.19Q1152.86 179.19 1155.63 175.5Q1158.39 171.8 1158.39 165.43Q1158.39 158.62 1154.99 155.1Q1151.59 151.57 1145.38 151.57Q1137.65 151.57 1131.23 156.71Q1124.81 161.85 1120.73 173.07ZM1147.68 201.21Q1147.68 193.47 1143.43 186.89Q1139.18 180.3 1130.72 176.26Q1122.26 172.22 1109.68 172.22Q1096.59 172.22 1087.33 176.09Q1078.06 179.96 1073.22 187.01Q1068.38 194.07 1068.38 203.68Q1068.38 211.75 1073.01 218.08Q1077.64 224.41 1086.73 228.03Q1095.83 231.64 1109.17 231.64Q1120.82 231.64 1129.45 227.86Q1138.07 224.07 1142.88 217.23Q1147.68 210.39 1147.68 201.21ZM1103.65 184.38Q1106.45 183.7 1109.56 187.31Q1112.66 190.93 1114.95 200.19Q1117.25 209.45 1116.23 214.13Q1115.21 218.81 1112.4 219.49Q1110.53 219.91 1108.49 218.51Q1106.45 217.1 1104.54 213.45Q1102.63 209.79 1101.1 203.68Q1099.57 197.47 1099.57 193.39Q1099.57 189.31 1100.67 187.06Q1101.78 184.81 1103.65 184.38ZM1228.09 201.04Q1228.09 208.09 1224.39 211.96Q1220.69 215.83 1214.06 215.83L1172.92 215.83L1172.92 204.61L1190.6 204.61Q1195.53 204.61 1195.53 199.43Q1195.53 193.22 1193.45 190.58Q1191.37 187.95 1188.64 187.95Q1186.43 187.95 1184.61 189.39Q1182.78 190.84 1181.67 194.07Q1180.57 197.3 1180.57 202.74Q1180.57 215.83 1186.22 222.16Q1191.88 228.5 1201.39 228.5Q1205.64 228.5 1210.15 227.05Q1214.65 225.6 1218.31 222.63Q1220.35 220.93 1221.71 220.29Q1223.07 219.66 1224.17 219.66Q1225.62 219.66 1226.64 220.84Q1227.66 222.03 1227.66 224.75Q1227.66 231.72 1223.33 237.89Q1218.99 244.05 1210.96 247.88Q1202.92 251.7 1191.96 251.7Q1179.72 251.7 1170.62 246.85Q1161.53 242.01 1156.52 233.21Q1151.5 224.41 1151.5 212.69Q1151.5 201.12 1156.22 191.94Q1160.93 182.76 1170.24 177.45Q1179.55 172.14 1193.15 172.14Q1204.12 172.14 1211.93 176.09Q1219.76 180.05 1223.92 186.63Q1228.09 193.22 1228.09 201.04ZM1267.94 179.19L1267.94 227.39Q1267.94 231.81 1268.29 233.51Q1268.62 235.21 1269.64 236.15L1270.66 237.08Q1273.38 239.54 1273.38 243.12Q1273.38 250 1267.1 250L1236.41 250Q1233.18 250 1231.27 248.17Q1229.36 246.34 1229.36 243.12Q1229.36 240.65 1230.29 239.08Q1231.23 237.5 1233.01 236.06L1233.86 235.29Q1234.8 234.53 1235.26 233.04Q1235.73 231.56 1235.73 227.39L1235.73 202.66Q1235.73 199.34 1235.09 197.98Q1234.45 196.62 1233.01 195.69L1232.25 195.18Q1230.2 193.81 1229.36 192.45Q1228.51 191.09 1228.51 188.97Q1228.51 186.5 1229.95 184.72Q1231.39 182.94 1235.05 181.41L1250.27 175.2Q1254.6 173.41 1257.07 172.78Q1259.53 172.14 1261.65 172.14Q1264.8 172.14 1266.37 174.09Q1267.94 176.05 1267.94 179.19ZM1265.23 201.63L1259.62 194.75L1262.93 191.26Q1273.05 180.64 1280.44 176.39Q1287.84 172.14 1294.98 172.14Q1304.33 172.14 1308.62 177.62Q1312.91 183.1 1313.93 193.05L1317.41 227.39Q1317.84 231.47 1318.14 232.96Q1318.43 234.44 1319.29 235.29L1320.13 236.06Q1321.84 237.59 1322.86 239.12Q1323.88 240.65 1323.88 243.12Q1323.88 246.34 1321.96 248.17Q1320.05 250 1316.82 250L1285.88 250Q1279.59 250 1279.59 243.12Q1279.59 239.38 1282.39 237.08L1283.41 236.15Q1284.43 235.21 1284.99 233.68Q1285.54 232.15 1285.12 228.24L1282.57 205.54Q1281.97 200.53 1280.44 198.11Q1278.91 195.69 1275.42 195.69Q1273.56 195.69 1271.68 196.53Q1269.82 197.38 1267.69 199.34ZM1375.38 233.09L1373.77 233L1373.77 152.16Q1373.77 148.85 1373.13 147.49Q1372.49 146.13 1371.05 145.19L1370.28 144.69Q1368.24 143.32 1367.39 141.96Q1366.54 140.6 1366.54 138.48Q1366.54 136.01 1367.99 134.23Q1369.43 132.44 1373.09 130.91L1388.3 124.71Q1392.64 122.92 1395.1 122.29Q1397.57 121.65 1399.69 121.65Q1402.84 121.65 1404.41 123.6Q1405.98 125.56 1405.98 128.7L1405.98 227.39Q1405.98 231.56 1406.49 233Q1407 234.44 1407.85 235.29L1408.7 236.06Q1410.4 237.59 1411.38 239.12Q1412.36 240.65 1412.36 243.12Q1412.36 246.34 1410.44 248.17Q1408.53 250 1405.3 250L1389.07 250Q1383.71 250 1379.55 246Q1375.38 242.01 1375.38 236.82ZM1322.77 214.56Q1322.77 201.04 1327.48 191.56Q1332.2 182.08 1340.62 177.11Q1349.03 172.14 1360.08 172.14Q1368.92 172.14 1375.34 176.13Q1381.76 180.13 1386.69 188.29L1378.02 198.83Q1375.38 193.39 1372.7 191.44Q1370.03 189.48 1366.8 189.48Q1363.57 189.48 1361.14 191.9Q1358.72 194.32 1357.36 199.04Q1356 203.76 1356 210.73Q1356 218.12 1357.53 222.84Q1359.06 227.56 1361.74 229.77Q1364.42 231.98 1367.82 231.98Q1371.22 231.98 1374.11 229.6Q1377 227.22 1379.21 221.78L1384.73 228.07Q1378.44 239.12 1370.58 245.41Q1362.72 251.7 1352.09 251.7Q1343.42 251.7 1336.79 247.15Q1330.16 242.6 1326.46 234.23Q1322.77 225.86 1322.77 214.56ZM1488.34 201.04Q1488.34 208.09 1484.64 211.96Q1480.94 215.83 1474.31 215.83L1433.17 215.83L1433.17 204.61L1450.86 204.61Q1455.78 204.61 1455.78 199.43Q1455.78 193.22 1453.7 190.58Q1451.62 187.95 1448.9 187.95Q1446.69 187.95 1444.86 189.39Q1443.03 190.84 1441.93 194.07Q1440.82 197.3 1440.82 202.74Q1440.82 215.83 1446.48 222.16Q1452.13 228.5 1461.65 228.5Q1465.9 228.5 1470.4 227.05Q1474.91 225.6 1478.56 222.63Q1480.61 220.93 1481.96 220.29Q1483.32 219.66 1484.43 219.66Q1485.88 219.66 1486.89 220.84Q1487.91 222.03 1487.91 224.75Q1487.91 231.72 1483.58 237.89Q1479.24 244.05 1471.21 247.88Q1463.18 251.7 1452.21 251.7Q1439.97 251.7 1430.88 246.85Q1421.78 242.01 1416.77 233.21Q1411.75 224.41 1411.75 212.69Q1411.75 201.12 1416.47 191.94Q1421.19 182.76 1430.5 177.45Q1439.8 172.14 1453.4 172.14Q1464.37 172.14 1472.19 176.09Q1480.01 180.05 1484.17 186.63Q1488.34 193.22 1488.34 201.04ZM1522.42 239.29Q1526.25 239.29 1527.9 237.84Q1529.56 236.4 1529.56 234.53Q1529.56 233.34 1529.01 232.32Q1528.46 231.3 1526.76 230.32Q1525.06 229.34 1521.66 228.5Q1508.31 224.93 1501 220.97Q1493.69 217.02 1490.84 211.71Q1488 206.39 1488 198.83Q1488 186.93 1496.07 179.53Q1504.15 172.14 1520.81 172.14Q1525.65 172.14 1528.92 173.03Q1532.2 173.93 1534.53 174.82Q1536.87 175.71 1538.74 175.71Q1540.36 175.71 1541.59 174.82Q1542.82 173.93 1544.18 173.03Q1545.54 172.14 1547.5 172.14Q1549.71 172.14 1551.45 173.63Q1553.19 175.12 1554.3 179.37L1556 186.16Q1557.44 191.69 1556.72 195.51Q1556 199.34 1552.77 200.62Q1549.37 201.97 1546.18 200.74Q1542.99 199.51 1540.44 196.11Q1537.3 191.86 1534.41 189.44Q1531.52 187.01 1528.75 186Q1525.99 184.97 1523.19 184.97Q1519.36 184.97 1517.53 186.63Q1515.71 188.29 1515.71 190.41Q1515.71 192.03 1516.64 193.35Q1517.58 194.66 1520.21 195.81Q1522.85 196.96 1527.78 198.06Q1536.79 200.02 1543.37 203.46Q1549.96 206.91 1553.57 212.34Q1557.19 217.78 1557.19 225.78Q1557.19 233.94 1552.98 239.84Q1548.77 245.75 1541.33 248.98Q1533.9 252.21 1524.29 252.21Q1518.51 252.21 1515.41 251.36Q1512.31 250.51 1510.69 249.62Q1509.08 248.72 1507.72 248.72Q1506.27 248.72 1505.04 249.62Q1503.81 250.51 1502.45 251.36Q1501.09 252.21 1499.3 252.21Q1497.01 252.21 1495.69 250.72Q1494.37 249.24 1493.69 245.5L1492.16 236.57Q1491.23 230.88 1491.95 227.73Q1492.67 224.59 1496.24 223.74Q1499.39 222.97 1502.36 224.41Q1505.34 225.86 1508.23 229.85Q1512.39 235.47 1515.32 237.38Q1518.26 239.29 1522.42 239.29Z" fill="#f5bf1d" transform="translate(5 5)"/>
</g>
<defs><path id="p71" d="M853.76 166.5Q856.38 166.5 856.38 169.12L856.38 174.38Q856.38 177 853.76 177L852.53 177Q845.71 177 840.37 182.07Q835.03 187.15 832.24 193.62Q828.91 201.85 825.15 209.55Q821.38 217.25 817.18 223.9L824.88 232.65Q829.43 237.72 833.9 240.35Q838.36 242.97 846.06 242.97Q847.11 242.97 848.77 242.8Q850.43 242.62 851.13 242.62Q853.06 242.62 853.41 245.07L853.93 250.68Q854.11 252.78 851.66 253.12Q849.21 253.47 846.5 253.74Q843.78 254 840.99 254Q829.61 254 820.16 251.72Q810.71 249.45 803.01 241.93Q795.66 248.93 786.74 252.6Q777.81 256.27 766.61 256.27Q758.56 256.27 750.51 254.53Q742.46 252.78 735.81 248.75Q729.16 244.72 725.13 237.99Q721.11 231.25 721.11 221.45Q721.11 211.47 725.66 204.74Q730.21 198 737.91 193.62Q745.61 189.25 755.06 186.98L745.26 175.6Q740.88 170.53 738.61 164.66Q736.34 158.8 736.34 152.85Q736.34 144.45 740.71 137.1Q745.09 129.75 753.92 125.2Q762.76 120.65 776.06 120.65Q791.81 120.65 800.65 126.08Q809.49 131.5 809.49 139.2Q809.49 141.12 809.05 143.23Q808.61 145.32 807.74 147.6Q806.68 150.05 803.18 150.93L784.99 155.3Q782.88 155.82 782.88 153.9Q782.88 153.03 783.76 151.8Q786.03 148.82 786.74 146.55Q787.43 144.28 787.43 141.48Q787.43 137.28 785.07 133.95Q782.71 130.62 776.06 130.62Q766.44 130.62 761.88 134.91Q757.34 139.2 757.34 145.5Q757.34 149.88 759.44 154.78Q761.53 159.68 765.56 164.23L808.43 213.75Q813.34 205.53 815.78 198.09Q818.24 190.65 818.24 187.15Q818.24 182.6 815.35 179.8Q812.46 177 807.91 177L805.11 177Q802.49 177 802.49 174.38L802.49 169.12Q802.49 166.5 805.11 166.5ZM763.81 196.95Q757.16 199.75 751.82 205.53Q746.49 211.3 746.49 220.22Q746.49 227.75 749.81 232.47Q753.13 237.2 758.38 239.3Q763.63 241.4 769.41 241.4Q776.59 241.4 782.71 238.69Q788.84 235.97 793.91 231.6Z"/></defs>
<g fill="#f1f1eb" stroke="#f1f1eb" stroke-width="26" stroke-linejoin="round">
<use href="#p71" transform="translate(11.00 11.00)"/>
<use href="#p71" transform="translate(10.00 10.00)"/>
<use href="#p71" transform="translate(9.00 9.00)"/>
<use href="#p71" transform="translate(8.00 8.00)"/>
<use href="#p71" transform="translate(7.00 7.00)"/>
<use href="#p71" transform="translate(6.00 6.00)"/>
<use href="#p71" transform="translate(5.00 5.00)"/>
<use href="#p71" transform="translate(4.00 4.00)"/>
<use href="#p71" transform="translate(3.00 3.00)"/>
<use href="#p71" transform="translate(2.00 2.00)"/>
<use href="#p71" transform="translate(1.00 1.00)"/>
<use href="#p71" transform="translate(0.00 0.00)"/>
</g>
<g fill="#0b0c18" stroke="#0b0c18" stroke-width="8" stroke-linejoin="round">
<use href="#p71" transform="translate(11.00 11.00)"/>
<use href="#p71" transform="translate(10.00 10.00)"/>
<use href="#p71" transform="translate(9.00 9.00)"/>
<use href="#p71" transform="translate(8.00 8.00)"/>
<use href="#p71" transform="translate(7.00 7.00)"/>
<use href="#p71" transform="translate(6.00 6.00)"/>
<use href="#p71" transform="translate(5.00 5.00)"/>
<use href="#p71" transform="translate(4.00 4.00)"/>
<use href="#p71" transform="translate(3.00 3.00)"/>
<use href="#p71" transform="translate(2.00 2.00)"/>
<use href="#p71" transform="translate(1.00 1.00)"/>
<use href="#p71" transform="translate(0.00 0.00)"/>
</g>
<g fill="#2536d0">
<use href="#p71" transform="translate(11.00 11.00)"/>
<use href="#p71" transform="translate(10.00 10.00)"/>
<use href="#p71" transform="translate(9.00 9.00)"/>
<use href="#p71" transform="translate(8.00 8.00)"/>
<use href="#p71" transform="translate(7.00 7.00)"/>
<use href="#p71" transform="translate(6.00 6.00)"/>
<use href="#p71" transform="translate(5.00 5.00)"/>
<use href="#p71" transform="translate(4.00 4.00)"/>
<use href="#p71" transform="translate(3.00 3.00)"/>
<use href="#p71" transform="translate(2.00 2.00)"/>
<use href="#p71" transform="translate(1.00 1.00)"/>
</g>
<path d="M853.76 166.5Q856.38 166.5 856.38 169.12L856.38 174.38Q856.38 177 853.76 177L852.53 177Q845.71 177 840.37 182.07Q835.03 187.15 832.24 193.62Q828.91 201.85 825.15 209.55Q821.38 217.25 817.18 223.9L824.88 232.65Q829.43 237.72 833.9 240.35Q838.36 242.97 846.06 242.97Q847.11 242.97 848.77 242.8Q850.43 242.62 851.13 242.62Q853.06 242.62 853.41 245.07L853.93 250.68Q854.11 252.78 851.66 253.12Q849.21 253.47 846.5 253.74Q843.78 254 840.99 254Q829.61 254 820.16 251.72Q810.71 249.45 803.01 241.93Q795.66 248.93 786.74 252.6Q777.81 256.27 766.61 256.27Q758.56 256.27 750.51 254.53Q742.46 252.78 735.81 248.75Q729.16 244.72 725.13 237.99Q721.11 231.25 721.11 221.45Q721.11 211.47 725.66 204.74Q730.21 198 737.91 193.62Q745.61 189.25 755.06 186.98L745.26 175.6Q740.88 170.53 738.61 164.66Q736.34 158.8 736.34 152.85Q736.34 144.45 740.71 137.1Q745.09 129.75 753.92 125.2Q762.76 120.65 776.06 120.65Q791.81 120.65 800.65 126.08Q809.49 131.5 809.49 139.2Q809.49 141.12 809.05 143.23Q808.61 145.32 807.74 147.6Q806.68 150.05 803.18 150.93L784.99 155.3Q782.88 155.82 782.88 153.9Q782.88 153.03 783.76 151.8Q786.03 148.82 786.74 146.55Q787.43 144.28 787.43 141.48Q787.43 137.28 785.07 133.95Q782.71 130.62 776.06 130.62Q766.44 130.62 761.88 134.91Q757.34 139.2 757.34 145.5Q757.34 149.88 759.44 154.78Q761.53 159.68 765.56 164.23L808.43 213.75Q813.34 205.53 815.78 198.09Q818.24 190.65 818.24 187.15Q818.24 182.6 815.35 179.8Q812.46 177 807.91 177L805.11 177Q802.49 177 802.49 174.38L802.49 169.12Q802.49 166.5 805.11 166.5ZM763.81 196.95Q757.16 199.75 751.82 205.53Q746.49 211.3 746.49 220.22Q746.49 227.75 749.81 232.47Q753.13 237.2 758.38 239.3Q763.63 241.4 769.41 241.4Q776.59 241.4 782.71 238.69Q788.84 235.97 793.91 231.6Z" fill="#f5bf1d"/>
<clipPath id="c72"><path d="M853.76 166.5Q856.38 166.5 856.38 169.12L856.38 174.38Q856.38 177 853.76 177L852.53 177Q845.71 177 840.37 182.07Q835.03 187.15 832.24 193.62Q828.91 201.85 825.15 209.55Q821.38 217.25 817.18 223.9L824.88 232.65Q829.43 237.72 833.9 240.35Q838.36 242.97 846.06 242.97Q847.11 242.97 848.77 242.8Q850.43 242.62 851.13 242.62Q853.06 242.62 853.41 245.07L853.93 250.68Q854.11 252.78 851.66 253.12Q849.21 253.47 846.5 253.74Q843.78 254 840.99 254Q829.61 254 820.16 251.72Q810.71 249.45 803.01 241.93Q795.66 248.93 786.74 252.6Q777.81 256.27 766.61 256.27Q758.56 256.27 750.51 254.53Q742.46 252.78 735.81 248.75Q729.16 244.72 725.13 237.99Q721.11 231.25 721.11 221.45Q721.11 211.47 725.66 204.74Q730.21 198 737.91 193.62Q745.61 189.25 755.06 186.98L745.26 175.6Q740.88 170.53 738.61 164.66Q736.34 158.8 736.34 152.85Q736.34 144.45 740.71 137.1Q745.09 129.75 753.92 125.2Q762.76 120.65 776.06 120.65Q791.81 120.65 800.65 126.08Q809.49 131.5 809.49 139.2Q809.49 141.12 809.05 143.23Q808.61 145.32 807.74 147.6Q806.68 150.05 803.18 150.93L784.99 155.3Q782.88 155.82 782.88 153.9Q782.88 153.03 783.76 151.8Q786.03 148.82 786.74 146.55Q787.43 144.28 787.43 141.48Q787.43 137.28 785.07 133.95Q782.71 130.62 776.06 130.62Q766.44 130.62 761.88 134.91Q757.34 139.2 757.34 145.5Q757.34 149.88 759.44 154.78Q761.53 159.68 765.56 164.23L808.43 213.75Q813.34 205.53 815.78 198.09Q818.24 190.65 818.24 187.15Q818.24 182.6 815.35 179.8Q812.46 177 807.91 177L805.11 177Q802.49 177 802.49 174.38L802.49 169.12Q802.49 166.5 805.11 166.5ZM763.81 196.95Q757.16 199.75 751.82 205.53Q746.49 211.3 746.49 220.22Q746.49 227.75 749.81 232.47Q753.13 237.2 758.38 239.3Q763.63 241.4 769.41 241.4Q776.59 241.4 782.71 238.69Q788.84 235.97 793.91 231.6Z"/></clipPath><g clip-path="url(#c72)">
<rect x="-5000" y="-5000" width="20000" height="20000" fill="#fde7a0"/>
<path d="M853.76 166.5Q856.38 166.5 856.38 169.12L856.38 174.38Q856.38 177 853.76 177L852.53 177Q845.71 177 840.37 182.07Q835.03 187.15 832.24 193.62Q828.91 201.85 825.15 209.55Q821.38 217.25 817.18 223.9L824.88 232.65Q829.43 237.72 833.9 240.35Q838.36 242.97 846.06 242.97Q847.11 242.97 848.77 242.8Q850.43 242.62 851.13 242.62Q853.06 242.62 853.41 245.07L853.93 250.68Q854.11 252.78 851.66 253.12Q849.21 253.47 846.5 253.74Q843.78 254 840.99 254Q829.61 254 820.16 251.72Q810.71 249.45 803.01 241.93Q795.66 248.93 786.74 252.6Q777.81 256.27 766.61 256.27Q758.56 256.27 750.51 254.53Q742.46 252.78 735.81 248.75Q729.16 244.72 725.13 237.99Q721.11 231.25 721.11 221.45Q721.11 211.47 725.66 204.74Q730.21 198 737.91 193.62Q745.61 189.25 755.06 186.98L745.26 175.6Q740.88 170.53 738.61 164.66Q736.34 158.8 736.34 152.85Q736.34 144.45 740.71 137.1Q745.09 129.75 753.92 125.2Q762.76 120.65 776.06 120.65Q791.81 120.65 800.65 126.08Q809.49 131.5 809.49 139.2Q809.49 141.12 809.05 143.23Q808.61 145.32 807.74 147.6Q806.68 150.05 803.18 150.93L784.99 155.3Q782.88 155.82 782.88 153.9Q782.88 153.03 783.76 151.8Q786.03 148.82 786.74 146.55Q787.43 144.28 787.43 141.48Q787.43 137.28 785.07 133.95Q782.71 130.62 776.06 130.62Q766.44 130.62 761.88 134.91Q757.34 139.2 757.34 145.5Q757.34 149.88 759.44 154.78Q761.53 159.68 765.56 164.23L808.43 213.75Q813.34 205.53 815.78 198.09Q818.24 190.65 818.24 187.15Q818.24 182.6 815.35 179.8Q812.46 177 807.91 177L805.11 177Q802.49 177 802.49 174.38L802.49 169.12Q802.49 166.5 805.11 166.5ZM763.81 196.95Q757.16 199.75 751.82 205.53Q746.49 211.3 746.49 220.22Q746.49 227.75 749.81 232.47Q753.13 237.2 758.38 239.3Q763.63 241.4 769.41 241.4Q776.59 241.4 782.71 238.69Q788.84 235.97 793.91 231.6Z" fill="#f5bf1d" transform="translate(5 5)"/>
</g>
<path d="M321.54 320L321.54 306.7L323.55 306.7L323.55 318.19L330.11 318.19L330.11 320ZM336.92 320L336.92 306.7L345.41 306.7L345.41 308.5L338.93 308.5L338.93 312.38L344.84 312.38L344.84 314.17L338.93 314.17L338.93 318.19L345.41 318.19L345.41 320ZM367.62 320L367.62 306.7L371.98 306.7Q373.53 306.7 374.55 307.23Q375.57 307.76 376.07 308.67Q376.57 309.57 376.57 310.71Q376.57 312 375.92 313Q375.26 314 373.91 314.45L376.71 320L374.37 320L371.82 314.74L369.64 314.74L369.64 320ZM369.64 312.91L371.86 312.91Q373.23 312.91 373.87 312.31Q374.5 311.7 374.5 310.71Q374.5 309.7 373.88 309.1Q373.25 308.5 371.84 308.5L369.64 308.5ZM387.3 320.23Q385.69 320.23 384.51 319.39Q383.33 318.56 382.7 317.02Q382.08 315.48 382.08 313.35Q382.08 311.22 382.7 309.68Q383.33 308.14 384.51 307.31Q385.69 306.47 387.3 306.47Q388.93 306.47 390.1 307.31Q391.27 308.14 391.9 309.68Q392.53 311.22 392.53 313.35Q392.53 315.48 391.9 317.02Q391.27 318.56 390.1 319.39Q388.93 320.23 387.3 320.23ZM387.3 318.33Q388.73 318.33 389.6 317.05Q390.47 315.76 390.47 313.35Q390.47 310.94 389.6 309.65Q388.73 308.37 387.3 308.37Q385.86 308.37 384.99 309.65Q384.13 310.94 384.13 313.35Q384.13 315.76 384.99 317.05Q385.86 318.33 387.3 318.33ZM402.74 320.23Q401.07 320.23 399.9 319.37Q398.73 318.52 398.11 316.97Q397.49 315.42 397.49 313.37Q397.49 311.3 398.11 309.75Q398.73 308.2 399.91 307.34Q401.08 306.47 402.74 306.47Q404.88 306.47 406.16 307.64Q407.43 308.81 407.64 310.8L405.42 310.8Q405.25 309.76 404.57 309.07Q403.9 308.37 402.72 308.37Q401.22 308.37 400.38 309.7Q399.55 311.03 399.55 313.37Q399.55 315.69 400.38 317.01Q401.22 318.33 402.72 318.33Q403.94 318.33 404.58 317.69Q405.23 317.06 405.42 316.01L407.64 316.01Q407.34 317.97 406.1 319.1Q404.87 320.23 402.74 320.23ZM413.84 320L413.84 306.7L415.86 306.7L415.86 312.78L420.57 306.7L423.06 306.7L417.85 313.29L417.85 313.41L423.17 320L420.63 320L415.86 314.03L415.86 320ZM444.28 320L444.28 306.7L447.48 306.7Q450.69 306.7 452.24 308.48Q453.8 310.25 453.8 313.35Q453.8 316.45 452.24 318.22Q450.69 320 447.48 320ZM446.3 318.14L447.4 318.14Q449.72 318.14 450.74 316.84Q451.77 315.54 451.77 313.35Q451.77 311.17 450.74 309.86Q449.72 308.56 447.4 308.56L446.3 308.56ZM460.12 320L460.12 306.7L468.61 306.7L468.61 308.5L462.13 308.5L462.13 312.38L468.04 312.38L468.04 314.17L462.13 314.17L462.13 318.19L468.61 318.19L468.61 320ZM490.65 320L490.65 318.19L493.94 318.19L493.94 309.07L490.81 309.64L490.81 308.01L494.72 306.7L495.96 306.7L495.96 318.19L499.49 318.19L499.49 320ZM510.25 320.23Q509 320.23 508.05 319.73Q507.1 319.24 506.53 318.39Q505.96 317.55 505.85 316.49L507.78 316.49Q507.97 317.38 508.62 317.89Q509.27 318.4 510.25 318.4Q511.64 318.4 512.5 317.2Q513.35 315.99 513.48 313.43L513.35 313.43Q512.88 314.22 512.13 314.74Q511.39 315.25 510.03 315.25Q508.89 315.25 507.94 314.71Q506.99 314.17 506.42 313.2Q505.85 312.23 505.85 310.96Q505.85 309.74 506.4 308.72Q506.95 307.71 507.94 307.09Q508.94 306.47 510.31 306.47Q512.06 306.47 513.18 307.26Q514.3 308.05 514.84 309.48Q515.38 310.92 515.38 312.88Q515.38 315.08 514.78 316.73Q514.19 318.38 513.04 319.31Q511.89 320.23 510.25 320.23ZM510.44 313.44Q511.62 313.44 512.33 312.71Q513.05 311.98 513.05 310.88Q513.05 309.76 512.33 309.03Q511.62 308.3 510.44 308.3Q509.27 308.3 508.55 309.02Q507.84 309.74 507.84 310.86Q507.84 311.98 508.55 312.71Q509.27 313.44 510.44 313.44ZM525.88 320.23Q524.49 320.23 523.47 319.71Q522.44 319.2 521.86 318.31Q521.28 317.42 521.19 316.3L523.24 316.3Q523.43 317.23 524.12 317.8Q524.82 318.37 525.9 318.37Q527.17 318.37 527.91 317.56Q528.66 316.75 528.66 315.48Q528.66 314.13 527.9 313.39Q527.13 312.65 525.96 312.65Q525.01 312.65 524.34 313.08Q523.68 313.52 523.3 314.19L521.36 314.19L522.5 306.7L529.74 306.7L529.74 308.56L524.06 308.56L523.41 311.96L523.54 311.96Q523.94 311.51 524.62 311.2Q525.29 310.9 526.22 310.9Q527.59 310.9 528.57 311.49Q529.55 312.08 530.08 313.11Q530.61 314.15 530.61 315.46Q530.61 316.79 530.03 317.87Q529.45 318.95 528.39 319.59Q527.33 320.23 525.88 320.23ZM541.3 320.23Q539.76 320.23 538.61 319.39Q537.46 318.56 536.84 317.01Q536.21 315.46 536.21 313.35Q536.21 311.22 536.84 309.68Q537.46 308.14 538.61 307.31Q539.76 306.47 541.3 306.47Q542.86 306.47 544 307.31Q545.14 308.14 545.76 309.68Q546.39 311.22 546.39 313.35Q546.39 315.46 545.76 317.01Q545.14 318.56 544 319.39Q542.86 320.23 541.3 320.23ZM538.26 313.35Q538.26 314.41 538.45 315.29Q538.64 316.16 538.98 316.81L542.31 308.58Q541.83 308.35 541.3 308.35Q539.97 308.35 539.12 309.69Q538.26 311.03 538.26 313.35ZM541.3 318.37Q542.19 318.37 542.88 317.76Q543.56 317.15 543.95 316.02Q544.34 314.89 544.34 313.35Q544.34 312.29 544.15 311.41Q543.96 310.54 543.62 309.91L540.29 318.14Q540.77 318.37 541.3 318.37ZM566.93 320L570.9 306.7L573.3 306.7L577.27 320L575.08 320L574.19 316.81L570.01 316.81L569.12 320ZM572.04 309.55L570.47 315.19L573.73 315.19L572.16 309.55ZM573.22 305.98L569.08 304L569.08 302.12L573.22 304.27ZM598.45 320L598.45 318.19L601.74 318.19L601.74 309.07L598.61 309.64L598.61 308.01L602.52 306.7L603.75 306.7L603.75 318.19L607.29 318.19L607.29 320ZM618.05 320.23Q616.8 320.23 615.85 319.73Q614.9 319.24 614.33 318.39Q613.76 317.55 613.64 316.49L615.58 316.49Q615.77 317.38 616.42 317.89Q617.07 318.4 618.05 318.4Q619.44 318.4 620.3 317.2Q621.15 315.99 621.28 313.43L621.15 313.43Q620.68 314.22 619.93 314.74Q619.19 315.25 617.83 315.25Q616.69 315.25 615.74 314.71Q614.78 314.17 614.22 313.2Q613.64 312.23 613.64 310.96Q613.64 309.74 614.2 308.72Q614.75 307.71 615.74 307.09Q616.74 306.47 618.11 306.47Q619.86 306.47 620.98 307.26Q622.1 308.05 622.64 309.48Q623.18 310.92 623.18 312.88Q623.18 315.08 622.58 316.73Q621.99 318.38 620.84 319.31Q619.69 320.23 618.05 320.23ZM618.24 313.44Q619.42 313.44 620.13 312.71Q620.85 311.98 620.85 310.88Q620.85 309.76 620.13 309.03Q619.42 308.3 618.24 308.3Q617.07 308.3 616.35 309.02Q615.64 309.74 615.64 310.86Q615.64 311.98 616.35 312.71Q617.07 313.44 618.24 313.44ZM633.45 320.23Q632.2 320.23 631.25 319.73Q630.3 319.24 629.73 318.39Q629.16 317.55 629.04 316.49L630.98 316.49Q631.17 317.38 631.82 317.89Q632.47 318.4 633.45 318.4Q634.84 318.4 635.7 317.2Q636.55 315.99 636.68 313.43L636.55 313.43Q636.08 314.22 635.33 314.74Q634.59 315.25 633.23 315.25Q632.09 315.25 631.13 314.71Q630.18 314.17 629.62 313.2Q629.04 312.23 629.04 310.96Q629.04 309.74 629.6 308.72Q630.15 307.71 631.14 307.09Q632.14 306.47 633.51 306.47Q635.26 306.47 636.38 307.26Q637.5 308.05 638.04 309.48Q638.58 310.92 638.58 312.88Q638.58 315.08 637.98 316.73Q637.39 318.38 636.24 319.31Q635.09 320.23 633.45 320.23ZM633.64 313.44Q634.82 313.44 635.53 312.71Q636.25 311.98 636.25 310.88Q636.25 309.76 635.53 309.03Q634.82 308.3 633.64 308.3Q632.47 308.3 631.75 309.02Q631.04 309.74 631.04 310.86Q631.04 311.98 631.75 312.71Q632.47 313.44 633.64 313.44ZM648.85 320.23Q647.6 320.23 646.65 319.73Q645.7 319.24 645.13 318.39Q644.56 317.55 644.44 316.49L646.38 316.49Q646.57 317.38 647.22 317.89Q647.87 318.4 648.85 318.4Q650.24 318.4 651.1 317.2Q651.95 315.99 652.08 313.43L651.95 313.43Q651.48 314.22 650.73 314.74Q649.99 315.25 648.62 315.25Q647.49 315.25 646.53 314.71Q645.58 314.17 645.01 313.2Q644.44 312.23 644.44 310.96Q644.44 309.74 645 308.72Q645.55 307.71 646.54 307.09Q647.54 306.47 648.91 306.47Q650.66 306.47 651.78 307.26Q652.9 308.05 653.44 309.48Q653.98 310.92 653.98 312.88Q653.98 315.08 653.38 316.73Q652.79 318.38 651.64 319.31Q650.49 320.23 648.85 320.23ZM649.04 313.44Q650.22 313.44 650.93 312.71Q651.65 311.98 651.65 310.88Q651.65 309.76 650.93 309.03Q650.22 308.3 649.04 308.3Q647.87 308.3 647.15 309.02Q646.44 309.74 646.44 310.86Q646.44 311.98 647.15 312.71Q647.87 313.44 649.04 313.44ZM679.9 314.93Q679.2 314.93 678.7 314.46Q678.21 314 678.21 313.33Q678.21 312.67 678.7 312.21Q679.2 311.75 679.9 311.75Q680.62 311.75 681.11 312.21Q681.59 312.67 681.59 313.33Q681.59 314 681.11 314.46Q680.62 314.93 679.9 314.93ZM710.66 320.23Q709.31 320.23 708.26 319.68Q707.2 319.13 706.6 318Q705.99 316.87 705.99 315.14L705.99 306.7L708 306.7L708 315.25Q708 316.77 708.72 317.6Q709.45 318.42 710.7 318.42Q711.95 318.42 712.68 317.6Q713.4 316.77 713.4 315.25L713.4 306.7L715.41 306.7L715.41 315.14Q715.41 316.87 714.78 318Q714.16 319.13 713.08 319.68Q712.01 320.23 710.66 320.23ZM721.37 320L721.37 306.7L723.34 306.7L728.91 316.45L728.91 306.7L730.83 306.7L730.83 320L728.85 320L723.29 310.25L723.29 320ZM757.07 320.23Q755.02 320.23 753.92 319.08Q752.81 317.93 752.81 315.92L754.85 315.92Q754.87 316.96 755.38 317.68Q755.89 318.4 757.05 318.4Q758.17 318.4 758.66 317.7Q759.14 317 759.14 315.95L759.14 306.7L761.16 306.7L761.16 315.95Q761.16 318 760.07 319.12Q758.99 320.23 757.07 320.23ZM772.3 320.23Q770.68 320.23 769.51 319.39Q768.33 318.56 767.7 317.02Q767.07 315.48 767.07 313.35Q767.07 311.22 767.7 309.68Q768.33 308.14 769.51 307.31Q770.68 306.47 772.3 306.47Q773.93 306.47 775.1 307.31Q776.27 308.14 776.9 309.68Q777.52 311.22 777.52 313.35Q777.52 315.48 776.9 317.02Q776.27 318.56 775.1 319.39Q773.93 320.23 772.3 320.23ZM772.3 318.33Q773.72 318.33 774.6 317.05Q775.47 315.76 775.47 313.35Q775.47 310.94 774.6 309.65Q773.72 308.37 772.3 308.37Q770.86 308.37 769.99 309.65Q769.13 310.94 769.13 313.35Q769.13 315.76 769.99 317.05Q770.86 318.33 772.3 318.33ZM787.66 320.23Q786.31 320.23 785.26 319.68Q784.2 319.13 783.6 318Q782.99 316.87 782.99 315.14L782.99 306.7L785 306.7L785 315.25Q785 316.77 785.72 317.6Q786.45 318.42 787.7 318.42Q788.95 318.42 789.68 317.6Q790.4 316.77 790.4 315.25L790.4 306.7L792.41 306.7L792.41 315.14Q792.41 316.87 791.78 318Q791.16 319.13 790.08 319.68Q789.01 320.23 787.66 320.23ZM798.82 320L798.82 306.7L803.18 306.7Q804.73 306.7 805.75 307.23Q806.77 307.76 807.27 308.67Q807.77 309.57 807.77 310.71Q807.77 312 807.12 313Q806.46 314 805.11 314.45L807.91 320L805.57 320L803.02 314.74L800.84 314.74L800.84 320ZM800.84 312.91L803.06 312.91Q804.43 312.91 805.07 312.31Q805.7 311.7 805.7 310.71Q805.7 309.7 805.08 309.1Q804.45 308.5 803.04 308.5L800.84 308.5ZM828.73 320L832.7 306.7L835.1 306.7L839.07 320L836.88 320L835.99 316.81L831.81 316.81L830.92 320ZM833.84 309.55L832.27 315.19L835.53 315.19L833.96 309.55ZM835.02 305.98L830.88 304L830.88 302.12L835.02 304.27ZM860.54 320L860.54 306.7L862.55 306.7L862.55 318.19L869.11 318.19L869.11 320ZM874.93 320L878.9 306.7L881.3 306.7L885.27 320L883.08 320L882.19 316.81L878.01 316.81L877.12 320ZM880.04 309.55L878.47 315.19L881.73 315.19L880.16 309.55ZM906.8 320L906.8 306.7L915.33 306.7L915.33 308.58L908.81 308.58L908.81 312.65L914.28 312.65L914.28 314.41L908.81 314.41L908.81 320ZM926.3 320.23Q924.68 320.23 923.51 319.39Q922.33 318.56 921.7 317.02Q921.07 315.48 921.07 313.35Q921.07 311.22 921.7 309.68Q922.33 308.14 923.51 307.31Q924.68 306.47 926.3 306.47Q927.93 306.47 929.1 307.31Q930.27 308.14 930.9 309.68Q931.52 311.22 931.52 313.35Q931.52 315.48 930.9 317.02Q930.27 318.56 929.1 319.39Q927.93 320.23 926.3 320.23ZM926.3 318.33Q927.72 318.33 928.6 317.05Q929.47 315.76 929.47 313.35Q929.47 310.94 928.6 309.65Q927.72 308.37 926.3 308.37Q924.86 308.37 923.99 309.65Q923.13 310.94 923.13 313.35Q923.13 315.76 923.99 317.05Q924.86 318.33 926.3 318.33ZM937.8 320L937.8 318.21L940.69 318.21L940.69 308.49L937.84 308.49L937.84 306.7L945.56 306.7L945.56 308.49L942.71 308.49L942.71 318.21L945.59 318.21L945.59 320ZM957.23 320.23Q955.83 320.23 954.77 319.71Q953.72 319.2 953.12 318.25Q952.52 317.3 952.5 315.99L954.63 315.99Q954.65 317 955.32 317.71Q956 318.42 957.21 318.42Q958.33 318.42 958.96 317.9Q959.59 317.38 959.59 316.54Q959.59 315.84 959.22 315.37Q958.85 314.91 958.07 314.54Q957.29 314.17 956.05 313.77Q954.4 313.24 953.62 312.3Q952.84 311.36 952.84 309.99Q952.84 308.41 953.98 307.44Q955.12 306.47 957.12 306.47Q959.06 306.47 960.23 307.47Q961.41 308.47 961.45 310.23L959.3 310.23Q959.3 309.76 959.04 309.31Q958.77 308.87 958.28 308.57Q957.78 308.28 957.06 308.28Q956.17 308.26 955.56 308.7Q954.95 309.15 954.95 309.91Q954.95 310.84 955.69 311.36Q956.43 311.89 958.11 312.44Q959.15 312.78 959.96 313.26Q960.77 313.75 961.23 314.5Q961.7 315.25 961.7 316.41Q961.7 317.47 961.17 318.34Q960.63 319.2 959.64 319.71Q958.64 320.23 957.23 320.23Z" fill="#f1f1eb"/></svg>